<mxfile host="app.diagrams.net" agent="Mozilla/5.0 (Windows NT 10.0; Win64; x64) AppleWebKit/537.36 (KHTML, like Gecko) Chrome/134.0.0.0 Safari/537.36" version="26.1.1">
  <diagram id="DxUpg1Arsk8RwEHHgi0L" name="PÃ¡gina-2">
    <mxGraphModel dx="3055" dy="738" grid="1" gridSize="10" guides="1" tooltips="1" connect="1" arrows="1" fold="1" page="1" pageScale="1" pageWidth="1169" pageHeight="827" math="0" shadow="0">
      <root>
        <mxCell id="0" />
        <mxCell id="1" parent="0" />
        <mxCell id="nPWGh4sjyy6nn9jQ8VMq-1" value="empresa" style="shape=table;startSize=30;container=1;collapsible=1;childLayout=tableLayout;fixedRows=1;rowLines=0;fontStyle=1;align=center;resizeLast=1;html=1;shadow=1;" parent="1" vertex="1">
          <mxGeometry x="350" y="120" width="180" height="180" as="geometry" />
        </mxCell>
        <mxCell id="nPWGh4sjyy6nn9jQ8VMq-2" value="" style="shape=tableRow;horizontal=0;startSize=0;swimlaneHead=0;swimlaneBody=0;fillColor=none;collapsible=0;dropTarget=0;points=[[0,0.5],[1,0.5]];portConstraint=eastwest;top=0;left=0;right=0;bottom=1;shadow=1;" parent="nPWGh4sjyy6nn9jQ8VMq-1" vertex="1">
          <mxGeometry y="30" width="180" height="30" as="geometry" />
        </mxCell>
        <mxCell id="nPWGh4sjyy6nn9jQ8VMq-3" value="PK" style="shape=partialRectangle;connectable=0;fillColor=none;top=0;left=0;bottom=0;right=0;fontStyle=1;overflow=hidden;whiteSpace=wrap;html=1;shadow=1;" parent="nPWGh4sjyy6nn9jQ8VMq-2" vertex="1">
          <mxGeometry width="30" height="30" as="geometry">
            <mxRectangle width="30" height="30" as="alternateBounds" />
          </mxGeometry>
        </mxCell>
        <mxCell id="nPWGh4sjyy6nn9jQ8VMq-4" value="emp_id" style="shape=partialRectangle;connectable=0;fillColor=none;top=0;left=0;bottom=0;right=0;align=left;spacingLeft=6;fontStyle=5;overflow=hidden;whiteSpace=wrap;html=1;shadow=1;" parent="nPWGh4sjyy6nn9jQ8VMq-2" vertex="1">
          <mxGeometry x="30" width="150" height="30" as="geometry">
            <mxRectangle width="150" height="30" as="alternateBounds" />
          </mxGeometry>
        </mxCell>
        <mxCell id="nPWGh4sjyy6nn9jQ8VMq-5" value="" style="shape=tableRow;horizontal=0;startSize=0;swimlaneHead=0;swimlaneBody=0;fillColor=none;collapsible=0;dropTarget=0;points=[[0,0.5],[1,0.5]];portConstraint=eastwest;top=0;left=0;right=0;bottom=0;shadow=1;" parent="nPWGh4sjyy6nn9jQ8VMq-1" vertex="1">
          <mxGeometry y="60" width="180" height="30" as="geometry" />
        </mxCell>
        <mxCell id="nPWGh4sjyy6nn9jQ8VMq-6" value="" style="shape=partialRectangle;connectable=0;fillColor=none;top=0;left=0;bottom=0;right=0;editable=1;overflow=hidden;whiteSpace=wrap;html=1;shadow=1;" parent="nPWGh4sjyy6nn9jQ8VMq-5" vertex="1">
          <mxGeometry width="30" height="30" as="geometry">
            <mxRectangle width="30" height="30" as="alternateBounds" />
          </mxGeometry>
        </mxCell>
        <mxCell id="nPWGh4sjyy6nn9jQ8VMq-7" value="emp_nome" style="shape=partialRectangle;connectable=0;fillColor=none;top=0;left=0;bottom=0;right=0;align=left;spacingLeft=6;overflow=hidden;whiteSpace=wrap;html=1;shadow=1;" parent="nPWGh4sjyy6nn9jQ8VMq-5" vertex="1">
          <mxGeometry x="30" width="150" height="30" as="geometry">
            <mxRectangle width="150" height="30" as="alternateBounds" />
          </mxGeometry>
        </mxCell>
        <mxCell id="nPWGh4sjyy6nn9jQ8VMq-8" value="" style="shape=tableRow;horizontal=0;startSize=0;swimlaneHead=0;swimlaneBody=0;fillColor=none;collapsible=0;dropTarget=0;points=[[0,0.5],[1,0.5]];portConstraint=eastwest;top=0;left=0;right=0;bottom=0;shadow=1;" parent="nPWGh4sjyy6nn9jQ8VMq-1" vertex="1">
          <mxGeometry y="90" width="180" height="30" as="geometry" />
        </mxCell>
        <mxCell id="nPWGh4sjyy6nn9jQ8VMq-9" value="" style="shape=partialRectangle;connectable=0;fillColor=none;top=0;left=0;bottom=0;right=0;editable=1;overflow=hidden;whiteSpace=wrap;html=1;shadow=1;" parent="nPWGh4sjyy6nn9jQ8VMq-8" vertex="1">
          <mxGeometry width="30" height="30" as="geometry">
            <mxRectangle width="30" height="30" as="alternateBounds" />
          </mxGeometry>
        </mxCell>
        <mxCell id="nPWGh4sjyy6nn9jQ8VMq-10" value="emp_cnpj" style="shape=partialRectangle;connectable=0;fillColor=none;top=0;left=0;bottom=0;right=0;align=left;spacingLeft=6;overflow=hidden;whiteSpace=wrap;html=1;shadow=1;" parent="nPWGh4sjyy6nn9jQ8VMq-8" vertex="1">
          <mxGeometry x="30" width="150" height="30" as="geometry">
            <mxRectangle width="150" height="30" as="alternateBounds" />
          </mxGeometry>
        </mxCell>
        <mxCell id="nPWGh4sjyy6nn9jQ8VMq-11" value="" style="shape=tableRow;horizontal=0;startSize=0;swimlaneHead=0;swimlaneBody=0;fillColor=none;collapsible=0;dropTarget=0;points=[[0,0.5],[1,0.5]];portConstraint=eastwest;top=0;left=0;right=0;bottom=0;shadow=1;" parent="nPWGh4sjyy6nn9jQ8VMq-1" vertex="1">
          <mxGeometry y="120" width="180" height="30" as="geometry" />
        </mxCell>
        <mxCell id="nPWGh4sjyy6nn9jQ8VMq-12" value="" style="shape=partialRectangle;connectable=0;fillColor=none;top=0;left=0;bottom=0;right=0;editable=1;overflow=hidden;whiteSpace=wrap;html=1;shadow=1;" parent="nPWGh4sjyy6nn9jQ8VMq-11" vertex="1">
          <mxGeometry width="30" height="30" as="geometry">
            <mxRectangle width="30" height="30" as="alternateBounds" />
          </mxGeometry>
        </mxCell>
        <mxCell id="nPWGh4sjyy6nn9jQ8VMq-13" value="emp_cel" style="shape=partialRectangle;connectable=0;fillColor=none;top=0;left=0;bottom=0;right=0;align=left;spacingLeft=6;overflow=hidden;whiteSpace=wrap;html=1;shadow=1;" parent="nPWGh4sjyy6nn9jQ8VMq-11" vertex="1">
          <mxGeometry x="30" width="150" height="30" as="geometry">
            <mxRectangle width="150" height="30" as="alternateBounds" />
          </mxGeometry>
        </mxCell>
        <mxCell id="Fvn3LyL0s-04VDup8MQJ-25" value="" style="shape=tableRow;horizontal=0;startSize=0;swimlaneHead=0;swimlaneBody=0;fillColor=none;collapsible=0;dropTarget=0;points=[[0,0.5],[1,0.5]];portConstraint=eastwest;top=0;left=0;right=0;bottom=0;shadow=1;" parent="nPWGh4sjyy6nn9jQ8VMq-1" vertex="1">
          <mxGeometry y="150" width="180" height="30" as="geometry" />
        </mxCell>
        <mxCell id="Fvn3LyL0s-04VDup8MQJ-26" value="" style="shape=partialRectangle;connectable=0;fillColor=none;top=0;left=0;bottom=0;right=0;editable=1;overflow=hidden;shadow=1;" parent="Fvn3LyL0s-04VDup8MQJ-25" vertex="1">
          <mxGeometry width="30" height="30" as="geometry">
            <mxRectangle width="30" height="30" as="alternateBounds" />
          </mxGeometry>
        </mxCell>
        <mxCell id="Fvn3LyL0s-04VDup8MQJ-27" value="emp_end" style="shape=partialRectangle;connectable=0;fillColor=none;top=0;left=0;bottom=0;right=0;align=left;spacingLeft=6;overflow=hidden;shadow=1;" parent="Fvn3LyL0s-04VDup8MQJ-25" vertex="1">
          <mxGeometry x="30" width="150" height="30" as="geometry">
            <mxRectangle width="150" height="30" as="alternateBounds" />
          </mxGeometry>
        </mxCell>
        <mxCell id="nPWGh4sjyy6nn9jQ8VMq-44" value="" style="endArrow=ERone;html=1;rounded=0;elbow=vertical;strokeWidth=2;endSize=12;startSize=12;startArrow=ERone;startFill=0;endFill=0;" parent="1" edge="1">
          <mxGeometry relative="1" as="geometry">
            <mxPoint x="1280" y="100" as="sourcePoint" />
            <mxPoint x="1440" y="100" as="targetPoint" />
          </mxGeometry>
        </mxCell>
        <mxCell id="bdou0zgwuHRvf7gCf9o--41" value="" style="endArrow=ERmany;html=1;rounded=0;elbow=vertical;strokeWidth=2;endSize=12;startSize=12;startArrow=ERone;startFill=0;endFill=0;" parent="1" edge="1">
          <mxGeometry relative="1" as="geometry">
            <mxPoint x="1440" y="170" as="sourcePoint" />
            <mxPoint x="1280" y="170" as="targetPoint" />
          </mxGeometry>
        </mxCell>
        <mxCell id="bdou0zgwuHRvf7gCf9o--79" value="" style="endArrow=none;html=1;rounded=0;elbow=vertical;entryX=1.005;entryY=0;entryDx=0;entryDy=0;entryPerimeter=0;" parent="1" edge="1">
          <mxGeometry relative="1" as="geometry">
            <mxPoint x="1270" y="40" as="sourcePoint" />
            <mxPoint x="1451" y="40" as="targetPoint" />
          </mxGeometry>
        </mxCell>
        <mxCell id="n2QR_PZvcFtyS0Cn1Ecn-1" value="produtos" style="shape=table;startSize=30;container=1;collapsible=1;childLayout=tableLayout;fixedRows=1;rowLines=0;fontStyle=1;align=center;resizeLast=1;html=1;shadow=1;" parent="1" vertex="1">
          <mxGeometry x="720" y="150" width="180" height="240" as="geometry">
            <mxRectangle x="790" y="80" width="90" height="30" as="alternateBounds" />
          </mxGeometry>
        </mxCell>
        <mxCell id="n2QR_PZvcFtyS0Cn1Ecn-2" value="" style="shape=tableRow;horizontal=0;startSize=0;swimlaneHead=0;swimlaneBody=0;fillColor=none;collapsible=0;dropTarget=0;points=[[0,0.5],[1,0.5]];portConstraint=eastwest;top=0;left=0;right=0;bottom=1;shadow=1;strokeColor=default;" parent="n2QR_PZvcFtyS0Cn1Ecn-1" vertex="1">
          <mxGeometry y="30" width="180" height="30" as="geometry" />
        </mxCell>
        <mxCell id="n2QR_PZvcFtyS0Cn1Ecn-3" value="PK" style="shape=partialRectangle;connectable=0;fillColor=none;top=0;left=0;bottom=0;right=0;fontStyle=1;overflow=hidden;whiteSpace=wrap;html=1;shadow=1;" parent="n2QR_PZvcFtyS0Cn1Ecn-2" vertex="1">
          <mxGeometry width="30" height="30" as="geometry">
            <mxRectangle width="30" height="30" as="alternateBounds" />
          </mxGeometry>
        </mxCell>
        <mxCell id="n2QR_PZvcFtyS0Cn1Ecn-4" value="prod_id" style="shape=partialRectangle;connectable=0;fillColor=none;top=0;left=0;bottom=0;right=0;align=left;spacingLeft=6;fontStyle=5;overflow=hidden;whiteSpace=wrap;html=1;shadow=1;" parent="n2QR_PZvcFtyS0Cn1Ecn-2" vertex="1">
          <mxGeometry x="30" width="150" height="30" as="geometry">
            <mxRectangle width="150" height="30" as="alternateBounds" />
          </mxGeometry>
        </mxCell>
        <mxCell id="U-YqSaufiQG7ANR-UFTZ-16" value="" style="shape=tableRow;horizontal=0;startSize=0;swimlaneHead=0;swimlaneBody=0;fillColor=none;collapsible=0;dropTarget=0;points=[[0,0.5],[1,0.5]];portConstraint=eastwest;top=0;left=0;right=0;bottom=0;" parent="n2QR_PZvcFtyS0Cn1Ecn-1" vertex="1">
          <mxGeometry y="60" width="180" height="30" as="geometry" />
        </mxCell>
        <mxCell id="U-YqSaufiQG7ANR-UFTZ-17" value="FK" style="shape=partialRectangle;connectable=0;fillColor=none;top=0;left=0;bottom=0;right=0;fontStyle=0;overflow=hidden;whiteSpace=wrap;html=1;" parent="U-YqSaufiQG7ANR-UFTZ-16" vertex="1">
          <mxGeometry width="30" height="30" as="geometry">
            <mxRectangle width="30" height="30" as="alternateBounds" />
          </mxGeometry>
        </mxCell>
        <mxCell id="U-YqSaufiQG7ANR-UFTZ-18" value="emp_id" style="shape=partialRectangle;connectable=0;fillColor=none;top=0;left=0;bottom=0;right=0;align=left;spacingLeft=6;fontStyle=0;overflow=hidden;whiteSpace=wrap;html=1;" parent="U-YqSaufiQG7ANR-UFTZ-16" vertex="1">
          <mxGeometry x="30" width="150" height="30" as="geometry">
            <mxRectangle width="150" height="30" as="alternateBounds" />
          </mxGeometry>
        </mxCell>
        <mxCell id="Fvn3LyL0s-04VDup8MQJ-7" value="" style="shape=tableRow;horizontal=0;startSize=0;swimlaneHead=0;swimlaneBody=0;fillColor=none;collapsible=0;dropTarget=0;points=[[0,0.5],[1,0.5]];portConstraint=eastwest;top=0;left=0;right=0;bottom=0;shadow=1;" parent="n2QR_PZvcFtyS0Cn1Ecn-1" vertex="1">
          <mxGeometry y="90" width="180" height="30" as="geometry" />
        </mxCell>
        <mxCell id="Fvn3LyL0s-04VDup8MQJ-8" value="FK" style="shape=partialRectangle;connectable=0;fillColor=none;top=0;left=0;bottom=0;right=0;fontStyle=0;overflow=hidden;whiteSpace=wrap;html=1;shadow=1;" parent="Fvn3LyL0s-04VDup8MQJ-7" vertex="1">
          <mxGeometry width="30" height="30" as="geometry">
            <mxRectangle width="30" height="30" as="alternateBounds" />
          </mxGeometry>
        </mxCell>
        <mxCell id="Fvn3LyL0s-04VDup8MQJ-9" value="cat_id" style="shape=partialRectangle;connectable=0;fillColor=none;top=0;left=0;bottom=0;right=0;align=left;spacingLeft=6;fontStyle=0;overflow=hidden;whiteSpace=wrap;html=1;shadow=1;" parent="Fvn3LyL0s-04VDup8MQJ-7" vertex="1">
          <mxGeometry x="30" width="150" height="30" as="geometry">
            <mxRectangle width="150" height="30" as="alternateBounds" />
          </mxGeometry>
        </mxCell>
        <mxCell id="n2QR_PZvcFtyS0Cn1Ecn-5" value="" style="shape=tableRow;horizontal=0;startSize=0;swimlaneHead=0;swimlaneBody=0;fillColor=none;collapsible=0;dropTarget=0;points=[[0,0.5],[1,0.5]];portConstraint=eastwest;top=0;left=0;right=0;bottom=0;shadow=1;" parent="n2QR_PZvcFtyS0Cn1Ecn-1" vertex="1">
          <mxGeometry y="120" width="180" height="30" as="geometry" />
        </mxCell>
        <mxCell id="n2QR_PZvcFtyS0Cn1Ecn-6" value="" style="shape=partialRectangle;connectable=0;fillColor=none;top=0;left=0;bottom=0;right=0;editable=1;overflow=hidden;whiteSpace=wrap;html=1;shadow=1;" parent="n2QR_PZvcFtyS0Cn1Ecn-5" vertex="1">
          <mxGeometry width="30" height="30" as="geometry">
            <mxRectangle width="30" height="30" as="alternateBounds" />
          </mxGeometry>
        </mxCell>
        <mxCell id="n2QR_PZvcFtyS0Cn1Ecn-7" value="prod_nome" style="shape=partialRectangle;connectable=0;fillColor=none;top=0;left=0;bottom=0;right=0;align=left;spacingLeft=6;overflow=hidden;whiteSpace=wrap;html=1;shadow=1;" parent="n2QR_PZvcFtyS0Cn1Ecn-5" vertex="1">
          <mxGeometry x="30" width="150" height="30" as="geometry">
            <mxRectangle width="150" height="30" as="alternateBounds" />
          </mxGeometry>
        </mxCell>
        <mxCell id="n2QR_PZvcFtyS0Cn1Ecn-8" value="" style="shape=tableRow;horizontal=0;startSize=0;swimlaneHead=0;swimlaneBody=0;fillColor=none;collapsible=0;dropTarget=0;points=[[0,0.5],[1,0.5]];portConstraint=eastwest;top=0;left=0;right=0;bottom=0;shadow=1;" parent="n2QR_PZvcFtyS0Cn1Ecn-1" vertex="1">
          <mxGeometry y="150" width="180" height="30" as="geometry" />
        </mxCell>
        <mxCell id="n2QR_PZvcFtyS0Cn1Ecn-9" value="" style="shape=partialRectangle;connectable=0;fillColor=none;top=0;left=0;bottom=0;right=0;editable=1;overflow=hidden;whiteSpace=wrap;html=1;shadow=1;" parent="n2QR_PZvcFtyS0Cn1Ecn-8" vertex="1">
          <mxGeometry width="30" height="30" as="geometry">
            <mxRectangle width="30" height="30" as="alternateBounds" />
          </mxGeometry>
        </mxCell>
        <mxCell id="n2QR_PZvcFtyS0Cn1Ecn-10" value="prod_desc" style="shape=partialRectangle;connectable=0;fillColor=none;top=0;left=0;bottom=0;right=0;align=left;spacingLeft=6;overflow=hidden;whiteSpace=wrap;html=1;shadow=1;" parent="n2QR_PZvcFtyS0Cn1Ecn-8" vertex="1">
          <mxGeometry x="30" width="150" height="30" as="geometry">
            <mxRectangle width="150" height="30" as="alternateBounds" />
          </mxGeometry>
        </mxCell>
        <mxCell id="Fvn3LyL0s-04VDup8MQJ-4" value="" style="shape=tableRow;horizontal=0;startSize=0;swimlaneHead=0;swimlaneBody=0;fillColor=none;collapsible=0;dropTarget=0;points=[[0,0.5],[1,0.5]];portConstraint=eastwest;top=0;left=0;right=0;bottom=0;shadow=1;" parent="n2QR_PZvcFtyS0Cn1Ecn-1" vertex="1">
          <mxGeometry y="180" width="180" height="30" as="geometry" />
        </mxCell>
        <mxCell id="Fvn3LyL0s-04VDup8MQJ-5" value="" style="shape=partialRectangle;connectable=0;fillColor=none;top=0;left=0;bottom=0;right=0;editable=1;overflow=hidden;shadow=1;" parent="Fvn3LyL0s-04VDup8MQJ-4" vertex="1">
          <mxGeometry width="30" height="30" as="geometry">
            <mxRectangle width="30" height="30" as="alternateBounds" />
          </mxGeometry>
        </mxCell>
        <mxCell id="Fvn3LyL0s-04VDup8MQJ-6" value="prod_est" style="shape=partialRectangle;connectable=0;fillColor=none;top=0;left=0;bottom=0;right=0;align=left;spacingLeft=6;overflow=hidden;shadow=1;" parent="Fvn3LyL0s-04VDup8MQJ-4" vertex="1">
          <mxGeometry x="30" width="150" height="30" as="geometry">
            <mxRectangle width="150" height="30" as="alternateBounds" />
          </mxGeometry>
        </mxCell>
        <mxCell id="n2QR_PZvcFtyS0Cn1Ecn-11" value="" style="shape=tableRow;horizontal=0;startSize=0;swimlaneHead=0;swimlaneBody=0;fillColor=none;collapsible=0;dropTarget=0;points=[[0,0.5],[1,0.5]];portConstraint=eastwest;top=0;left=0;right=0;bottom=0;shadow=1;" parent="n2QR_PZvcFtyS0Cn1Ecn-1" vertex="1">
          <mxGeometry y="210" width="180" height="30" as="geometry" />
        </mxCell>
        <mxCell id="n2QR_PZvcFtyS0Cn1Ecn-12" value="" style="shape=partialRectangle;connectable=0;fillColor=none;top=0;left=0;bottom=0;right=0;editable=1;overflow=hidden;whiteSpace=wrap;html=1;shadow=1;" parent="n2QR_PZvcFtyS0Cn1Ecn-11" vertex="1">
          <mxGeometry width="30" height="30" as="geometry">
            <mxRectangle width="30" height="30" as="alternateBounds" />
          </mxGeometry>
        </mxCell>
        <mxCell id="n2QR_PZvcFtyS0Cn1Ecn-13" value="prod_preco" style="shape=partialRectangle;connectable=0;fillColor=none;top=0;left=0;bottom=0;right=0;align=left;spacingLeft=6;overflow=hidden;whiteSpace=wrap;html=1;shadow=1;" parent="n2QR_PZvcFtyS0Cn1Ecn-11" vertex="1">
          <mxGeometry x="30" width="150" height="30" as="geometry">
            <mxRectangle width="150" height="30" as="alternateBounds" />
          </mxGeometry>
        </mxCell>
        <mxCell id="n2QR_PZvcFtyS0Cn1Ecn-14" value="contato" style="shape=table;startSize=30;container=1;collapsible=1;childLayout=tableLayout;fixedRows=1;rowLines=0;fontStyle=1;align=center;resizeLast=1;html=1;shadow=1;" parent="1" vertex="1">
          <mxGeometry y="110" width="180" height="150" as="geometry" />
        </mxCell>
        <mxCell id="n2QR_PZvcFtyS0Cn1Ecn-15" value="" style="shape=tableRow;horizontal=0;startSize=0;swimlaneHead=0;swimlaneBody=0;fillColor=none;collapsible=0;dropTarget=0;points=[[0,0.5],[1,0.5]];portConstraint=eastwest;top=0;left=0;right=0;bottom=1;shadow=1;" parent="n2QR_PZvcFtyS0Cn1Ecn-14" vertex="1">
          <mxGeometry y="30" width="180" height="30" as="geometry" />
        </mxCell>
        <mxCell id="n2QR_PZvcFtyS0Cn1Ecn-16" value="PK" style="shape=partialRectangle;connectable=0;fillColor=none;top=0;left=0;bottom=0;right=0;fontStyle=1;overflow=hidden;whiteSpace=wrap;html=1;shadow=1;" parent="n2QR_PZvcFtyS0Cn1Ecn-15" vertex="1">
          <mxGeometry width="30" height="30" as="geometry">
            <mxRectangle width="30" height="30" as="alternateBounds" />
          </mxGeometry>
        </mxCell>
        <mxCell id="n2QR_PZvcFtyS0Cn1Ecn-17" value="cont_id" style="shape=partialRectangle;connectable=0;fillColor=none;top=0;left=0;bottom=0;right=0;align=left;spacingLeft=6;fontStyle=5;overflow=hidden;whiteSpace=wrap;html=1;shadow=1;" parent="n2QR_PZvcFtyS0Cn1Ecn-15" vertex="1">
          <mxGeometry x="30" width="150" height="30" as="geometry">
            <mxRectangle width="150" height="30" as="alternateBounds" />
          </mxGeometry>
        </mxCell>
        <mxCell id="n2QR_PZvcFtyS0Cn1Ecn-21" value="" style="shape=tableRow;horizontal=0;startSize=0;swimlaneHead=0;swimlaneBody=0;fillColor=none;collapsible=0;dropTarget=0;points=[[0,0.5],[1,0.5]];portConstraint=eastwest;top=0;left=0;right=0;bottom=0;shadow=1;" parent="n2QR_PZvcFtyS0Cn1Ecn-14" vertex="1">
          <mxGeometry y="60" width="180" height="30" as="geometry" />
        </mxCell>
        <mxCell id="n2QR_PZvcFtyS0Cn1Ecn-22" value="FK" style="shape=partialRectangle;connectable=0;fillColor=none;top=0;left=0;bottom=0;right=0;editable=1;overflow=hidden;whiteSpace=wrap;html=1;shadow=1;" parent="n2QR_PZvcFtyS0Cn1Ecn-21" vertex="1">
          <mxGeometry width="30" height="30" as="geometry">
            <mxRectangle width="30" height="30" as="alternateBounds" />
          </mxGeometry>
        </mxCell>
        <mxCell id="n2QR_PZvcFtyS0Cn1Ecn-23" value="emp_id" style="shape=partialRectangle;connectable=0;fillColor=none;top=0;left=0;bottom=0;right=0;align=left;spacingLeft=6;overflow=hidden;whiteSpace=wrap;html=1;shadow=1;" parent="n2QR_PZvcFtyS0Cn1Ecn-21" vertex="1">
          <mxGeometry x="30" width="150" height="30" as="geometry">
            <mxRectangle width="150" height="30" as="alternateBounds" />
          </mxGeometry>
        </mxCell>
        <mxCell id="bdou0zgwuHRvf7gCf9o--35" value="" style="shape=tableRow;horizontal=0;startSize=0;swimlaneHead=0;swimlaneBody=0;fillColor=none;collapsible=0;dropTarget=0;points=[[0,0.5],[1,0.5]];portConstraint=eastwest;top=0;left=0;right=0;bottom=0;shadow=1;" parent="n2QR_PZvcFtyS0Cn1Ecn-14" vertex="1">
          <mxGeometry y="90" width="180" height="30" as="geometry" />
        </mxCell>
        <mxCell id="bdou0zgwuHRvf7gCf9o--36" value="" style="shape=partialRectangle;connectable=0;fillColor=none;top=0;left=0;bottom=0;right=0;fontStyle=0;overflow=hidden;whiteSpace=wrap;html=1;shadow=1;" parent="bdou0zgwuHRvf7gCf9o--35" vertex="1">
          <mxGeometry width="30" height="30" as="geometry">
            <mxRectangle width="30" height="30" as="alternateBounds" />
          </mxGeometry>
        </mxCell>
        <mxCell id="bdou0zgwuHRvf7gCf9o--37" value="cont_tipo" style="shape=partialRectangle;connectable=0;fillColor=none;top=0;left=0;bottom=0;right=0;align=left;spacingLeft=6;fontStyle=0;overflow=hidden;whiteSpace=wrap;html=1;shadow=1;" parent="bdou0zgwuHRvf7gCf9o--35" vertex="1">
          <mxGeometry x="30" width="150" height="30" as="geometry">
            <mxRectangle width="150" height="30" as="alternateBounds" />
          </mxGeometry>
        </mxCell>
        <mxCell id="n2QR_PZvcFtyS0Cn1Ecn-24" value="" style="shape=tableRow;horizontal=0;startSize=0;swimlaneHead=0;swimlaneBody=0;fillColor=none;collapsible=0;dropTarget=0;points=[[0,0.5],[1,0.5]];portConstraint=eastwest;top=0;left=0;right=0;bottom=0;shadow=1;" parent="n2QR_PZvcFtyS0Cn1Ecn-14" vertex="1">
          <mxGeometry y="120" width="180" height="30" as="geometry" />
        </mxCell>
        <mxCell id="n2QR_PZvcFtyS0Cn1Ecn-25" value="" style="shape=partialRectangle;connectable=0;fillColor=none;top=0;left=0;bottom=0;right=0;editable=1;overflow=hidden;whiteSpace=wrap;html=1;shadow=1;" parent="n2QR_PZvcFtyS0Cn1Ecn-24" vertex="1">
          <mxGeometry width="30" height="30" as="geometry">
            <mxRectangle width="30" height="30" as="alternateBounds" />
          </mxGeometry>
        </mxCell>
        <mxCell id="n2QR_PZvcFtyS0Cn1Ecn-26" value="cont_desc" style="shape=partialRectangle;connectable=0;fillColor=none;top=0;left=0;bottom=0;right=0;align=left;spacingLeft=6;overflow=hidden;whiteSpace=wrap;html=1;shadow=1;" parent="n2QR_PZvcFtyS0Cn1Ecn-24" vertex="1">
          <mxGeometry x="30" width="150" height="30" as="geometry">
            <mxRectangle width="150" height="30" as="alternateBounds" />
          </mxGeometry>
        </mxCell>
        <mxCell id="n2QR_PZvcFtyS0Cn1Ecn-27" value="usuarios" style="shape=table;startSize=30;container=1;collapsible=1;childLayout=tableLayout;fixedRows=1;rowLines=0;fontStyle=1;align=center;resizeLast=1;html=1;shadow=1;" parent="1" vertex="1">
          <mxGeometry x="330" y="450" width="180" height="180" as="geometry" />
        </mxCell>
        <mxCell id="n2QR_PZvcFtyS0Cn1Ecn-28" value="" style="shape=tableRow;horizontal=0;startSize=0;swimlaneHead=0;swimlaneBody=0;fillColor=none;collapsible=0;dropTarget=0;points=[[0,0.5],[1,0.5]];portConstraint=eastwest;top=0;left=0;right=0;bottom=1;shadow=1;" parent="n2QR_PZvcFtyS0Cn1Ecn-27" vertex="1">
          <mxGeometry y="30" width="180" height="30" as="geometry" />
        </mxCell>
        <mxCell id="n2QR_PZvcFtyS0Cn1Ecn-29" value="PK" style="shape=partialRectangle;connectable=0;fillColor=none;top=0;left=0;bottom=0;right=0;fontStyle=1;overflow=hidden;whiteSpace=wrap;html=1;shadow=1;" parent="n2QR_PZvcFtyS0Cn1Ecn-28" vertex="1">
          <mxGeometry width="30" height="30" as="geometry">
            <mxRectangle width="30" height="30" as="alternateBounds" />
          </mxGeometry>
        </mxCell>
        <mxCell id="n2QR_PZvcFtyS0Cn1Ecn-30" value="usu_id" style="shape=partialRectangle;connectable=0;fillColor=none;top=0;left=0;bottom=0;right=0;align=left;spacingLeft=6;fontStyle=5;overflow=hidden;whiteSpace=wrap;html=1;shadow=1;" parent="n2QR_PZvcFtyS0Cn1Ecn-28" vertex="1">
          <mxGeometry x="30" width="150" height="30" as="geometry">
            <mxRectangle width="150" height="30" as="alternateBounds" />
          </mxGeometry>
        </mxCell>
        <mxCell id="U-YqSaufiQG7ANR-UFTZ-1" value="" style="shape=tableRow;horizontal=0;startSize=0;swimlaneHead=0;swimlaneBody=0;fillColor=none;collapsible=0;dropTarget=0;points=[[0,0.5],[1,0.5]];portConstraint=eastwest;top=0;left=0;right=0;bottom=0;" parent="n2QR_PZvcFtyS0Cn1Ecn-27" vertex="1">
          <mxGeometry y="60" width="180" height="30" as="geometry" />
        </mxCell>
        <mxCell id="U-YqSaufiQG7ANR-UFTZ-2" value="FK" style="shape=partialRectangle;connectable=0;fillColor=none;top=0;left=0;bottom=0;right=0;fontStyle=0;overflow=hidden;whiteSpace=wrap;html=1;" parent="U-YqSaufiQG7ANR-UFTZ-1" vertex="1">
          <mxGeometry width="30" height="30" as="geometry">
            <mxRectangle width="30" height="30" as="alternateBounds" />
          </mxGeometry>
        </mxCell>
        <mxCell id="U-YqSaufiQG7ANR-UFTZ-3" value="emp_id" style="shape=partialRectangle;connectable=0;fillColor=none;top=0;left=0;bottom=0;right=0;align=left;spacingLeft=6;fontStyle=0;overflow=hidden;whiteSpace=wrap;html=1;" parent="U-YqSaufiQG7ANR-UFTZ-1" vertex="1">
          <mxGeometry x="30" width="150" height="30" as="geometry">
            <mxRectangle width="150" height="30" as="alternateBounds" />
          </mxGeometry>
        </mxCell>
        <mxCell id="n2QR_PZvcFtyS0Cn1Ecn-31" value="" style="shape=tableRow;horizontal=0;startSize=0;swimlaneHead=0;swimlaneBody=0;fillColor=none;collapsible=0;dropTarget=0;points=[[0,0.5],[1,0.5]];portConstraint=eastwest;top=0;left=0;right=0;bottom=0;shadow=1;" parent="n2QR_PZvcFtyS0Cn1Ecn-27" vertex="1">
          <mxGeometry y="90" width="180" height="30" as="geometry" />
        </mxCell>
        <mxCell id="n2QR_PZvcFtyS0Cn1Ecn-32" value="" style="shape=partialRectangle;connectable=0;fillColor=none;top=0;left=0;bottom=0;right=0;editable=1;overflow=hidden;whiteSpace=wrap;html=1;shadow=1;" parent="n2QR_PZvcFtyS0Cn1Ecn-31" vertex="1">
          <mxGeometry width="30" height="30" as="geometry">
            <mxRectangle width="30" height="30" as="alternateBounds" />
          </mxGeometry>
        </mxCell>
        <mxCell id="n2QR_PZvcFtyS0Cn1Ecn-33" value="usu_nome" style="shape=partialRectangle;connectable=0;fillColor=none;top=0;left=0;bottom=0;right=0;align=left;spacingLeft=6;overflow=hidden;whiteSpace=wrap;html=1;shadow=1;" parent="n2QR_PZvcFtyS0Cn1Ecn-31" vertex="1">
          <mxGeometry x="30" width="150" height="30" as="geometry">
            <mxRectangle width="150" height="30" as="alternateBounds" />
          </mxGeometry>
        </mxCell>
        <mxCell id="n2QR_PZvcFtyS0Cn1Ecn-34" value="" style="shape=tableRow;horizontal=0;startSize=0;swimlaneHead=0;swimlaneBody=0;fillColor=none;collapsible=0;dropTarget=0;points=[[0,0.5],[1,0.5]];portConstraint=eastwest;top=0;left=0;right=0;bottom=0;shadow=1;" parent="n2QR_PZvcFtyS0Cn1Ecn-27" vertex="1">
          <mxGeometry y="120" width="180" height="30" as="geometry" />
        </mxCell>
        <mxCell id="n2QR_PZvcFtyS0Cn1Ecn-35" value="" style="shape=partialRectangle;connectable=0;fillColor=none;top=0;left=0;bottom=0;right=0;editable=1;overflow=hidden;whiteSpace=wrap;html=1;shadow=1;" parent="n2QR_PZvcFtyS0Cn1Ecn-34" vertex="1">
          <mxGeometry width="30" height="30" as="geometry">
            <mxRectangle width="30" height="30" as="alternateBounds" />
          </mxGeometry>
        </mxCell>
        <mxCell id="n2QR_PZvcFtyS0Cn1Ecn-36" value="usu_email" style="shape=partialRectangle;connectable=0;fillColor=none;top=0;left=0;bottom=0;right=0;align=left;spacingLeft=6;overflow=hidden;whiteSpace=wrap;html=1;shadow=1;" parent="n2QR_PZvcFtyS0Cn1Ecn-34" vertex="1">
          <mxGeometry x="30" width="150" height="30" as="geometry">
            <mxRectangle width="150" height="30" as="alternateBounds" />
          </mxGeometry>
        </mxCell>
        <mxCell id="n2QR_PZvcFtyS0Cn1Ecn-37" value="" style="shape=tableRow;horizontal=0;startSize=0;swimlaneHead=0;swimlaneBody=0;fillColor=none;collapsible=0;dropTarget=0;points=[[0,0.5],[1,0.5]];portConstraint=eastwest;top=0;left=0;right=0;bottom=0;shadow=1;" parent="n2QR_PZvcFtyS0Cn1Ecn-27" vertex="1">
          <mxGeometry y="150" width="180" height="30" as="geometry" />
        </mxCell>
        <mxCell id="n2QR_PZvcFtyS0Cn1Ecn-38" value="" style="shape=partialRectangle;connectable=0;fillColor=none;top=0;left=0;bottom=0;right=0;editable=1;overflow=hidden;whiteSpace=wrap;html=1;shadow=1;" parent="n2QR_PZvcFtyS0Cn1Ecn-37" vertex="1">
          <mxGeometry width="30" height="30" as="geometry">
            <mxRectangle width="30" height="30" as="alternateBounds" />
          </mxGeometry>
        </mxCell>
        <mxCell id="n2QR_PZvcFtyS0Cn1Ecn-39" value="usu_senha" style="shape=partialRectangle;connectable=0;fillColor=none;top=0;left=0;bottom=0;right=0;align=left;spacingLeft=6;overflow=hidden;whiteSpace=wrap;html=1;shadow=1;" parent="n2QR_PZvcFtyS0Cn1Ecn-37" vertex="1">
          <mxGeometry x="30" width="150" height="30" as="geometry">
            <mxRectangle width="150" height="30" as="alternateBounds" />
          </mxGeometry>
        </mxCell>
        <mxCell id="n2QR_PZvcFtyS0Cn1Ecn-40" value="categorias" style="shape=table;startSize=30;container=1;collapsible=1;childLayout=tableLayout;fixedRows=1;rowLines=0;fontStyle=1;align=center;resizeLast=1;html=1;shadow=1;" parent="1" vertex="1">
          <mxGeometry x="720" y="414" width="180" height="120" as="geometry" />
        </mxCell>
        <mxCell id="n2QR_PZvcFtyS0Cn1Ecn-41" value="" style="shape=tableRow;horizontal=0;startSize=0;swimlaneHead=0;swimlaneBody=0;fillColor=none;collapsible=0;dropTarget=0;points=[[0,0.5],[1,0.5]];portConstraint=eastwest;top=0;left=0;right=0;bottom=1;shadow=1;" parent="n2QR_PZvcFtyS0Cn1Ecn-40" vertex="1">
          <mxGeometry y="30" width="180" height="30" as="geometry" />
        </mxCell>
        <mxCell id="n2QR_PZvcFtyS0Cn1Ecn-42" value="PK" style="shape=partialRectangle;connectable=0;fillColor=none;top=0;left=0;bottom=0;right=0;fontStyle=1;overflow=hidden;whiteSpace=wrap;html=1;shadow=1;" parent="n2QR_PZvcFtyS0Cn1Ecn-41" vertex="1">
          <mxGeometry width="30" height="30" as="geometry">
            <mxRectangle width="30" height="30" as="alternateBounds" />
          </mxGeometry>
        </mxCell>
        <mxCell id="n2QR_PZvcFtyS0Cn1Ecn-43" value="cat_id" style="shape=partialRectangle;connectable=0;fillColor=none;top=0;left=0;bottom=0;right=0;align=left;spacingLeft=6;fontStyle=5;overflow=hidden;whiteSpace=wrap;html=1;shadow=1;" parent="n2QR_PZvcFtyS0Cn1Ecn-41" vertex="1">
          <mxGeometry x="30" width="150" height="30" as="geometry">
            <mxRectangle width="150" height="30" as="alternateBounds" />
          </mxGeometry>
        </mxCell>
        <mxCell id="n2QR_PZvcFtyS0Cn1Ecn-44" value="" style="shape=tableRow;horizontal=0;startSize=0;swimlaneHead=0;swimlaneBody=0;fillColor=none;collapsible=0;dropTarget=0;points=[[0,0.5],[1,0.5]];portConstraint=eastwest;top=0;left=0;right=0;bottom=0;shadow=1;" parent="n2QR_PZvcFtyS0Cn1Ecn-40" vertex="1">
          <mxGeometry y="60" width="180" height="30" as="geometry" />
        </mxCell>
        <mxCell id="n2QR_PZvcFtyS0Cn1Ecn-45" value="" style="shape=partialRectangle;connectable=0;fillColor=none;top=0;left=0;bottom=0;right=0;editable=1;overflow=hidden;whiteSpace=wrap;html=1;shadow=1;" parent="n2QR_PZvcFtyS0Cn1Ecn-44" vertex="1">
          <mxGeometry width="30" height="30" as="geometry">
            <mxRectangle width="30" height="30" as="alternateBounds" />
          </mxGeometry>
        </mxCell>
        <mxCell id="n2QR_PZvcFtyS0Cn1Ecn-46" value="cat_nome" style="shape=partialRectangle;connectable=0;fillColor=none;top=0;left=0;bottom=0;right=0;align=left;spacingLeft=6;overflow=hidden;whiteSpace=wrap;html=1;shadow=1;" parent="n2QR_PZvcFtyS0Cn1Ecn-44" vertex="1">
          <mxGeometry x="30" width="150" height="30" as="geometry">
            <mxRectangle width="150" height="30" as="alternateBounds" />
          </mxGeometry>
        </mxCell>
        <mxCell id="n2QR_PZvcFtyS0Cn1Ecn-47" value="" style="shape=tableRow;horizontal=0;startSize=0;swimlaneHead=0;swimlaneBody=0;fillColor=none;collapsible=0;dropTarget=0;points=[[0,0.5],[1,0.5]];portConstraint=eastwest;top=0;left=0;right=0;bottom=0;shadow=1;" parent="n2QR_PZvcFtyS0Cn1Ecn-40" vertex="1">
          <mxGeometry y="90" width="180" height="30" as="geometry" />
        </mxCell>
        <mxCell id="n2QR_PZvcFtyS0Cn1Ecn-48" value="" style="shape=partialRectangle;connectable=0;fillColor=none;top=0;left=0;bottom=0;right=0;editable=1;overflow=hidden;whiteSpace=wrap;html=1;shadow=1;" parent="n2QR_PZvcFtyS0Cn1Ecn-47" vertex="1">
          <mxGeometry width="30" height="30" as="geometry">
            <mxRectangle width="30" height="30" as="alternateBounds" />
          </mxGeometry>
        </mxCell>
        <mxCell id="n2QR_PZvcFtyS0Cn1Ecn-49" value="cat_desc" style="shape=partialRectangle;connectable=0;fillColor=none;top=0;left=0;bottom=0;right=0;align=left;spacingLeft=6;overflow=hidden;whiteSpace=wrap;html=1;shadow=1;" parent="n2QR_PZvcFtyS0Cn1Ecn-47" vertex="1">
          <mxGeometry x="30" width="150" height="30" as="geometry">
            <mxRectangle width="150" height="30" as="alternateBounds" />
          </mxGeometry>
        </mxCell>
        <mxCell id="n2QR_PZvcFtyS0Cn1Ecn-53" value="cliente" style="shape=table;startSize=30;container=1;collapsible=1;childLayout=tableLayout;fixedRows=1;rowLines=0;fontStyle=1;align=center;resizeLast=1;html=1;shadow=1;" parent="1" vertex="1">
          <mxGeometry x="330" y="680" width="180" height="210" as="geometry" />
        </mxCell>
        <mxCell id="n2QR_PZvcFtyS0Cn1Ecn-54" value="" style="shape=tableRow;horizontal=0;startSize=0;swimlaneHead=0;swimlaneBody=0;fillColor=none;collapsible=0;dropTarget=0;points=[[0,0.5],[1,0.5]];portConstraint=eastwest;top=0;left=0;right=0;bottom=1;shadow=1;" parent="n2QR_PZvcFtyS0Cn1Ecn-53" vertex="1">
          <mxGeometry y="30" width="180" height="30" as="geometry" />
        </mxCell>
        <mxCell id="n2QR_PZvcFtyS0Cn1Ecn-55" value="PK" style="shape=partialRectangle;connectable=0;fillColor=none;top=0;left=0;bottom=0;right=0;fontStyle=1;overflow=hidden;whiteSpace=wrap;html=1;shadow=1;" parent="n2QR_PZvcFtyS0Cn1Ecn-54" vertex="1">
          <mxGeometry width="30" height="30" as="geometry">
            <mxRectangle width="30" height="30" as="alternateBounds" />
          </mxGeometry>
        </mxCell>
        <mxCell id="n2QR_PZvcFtyS0Cn1Ecn-56" value="cli_id" style="shape=partialRectangle;connectable=0;fillColor=none;top=0;left=0;bottom=0;right=0;align=left;spacingLeft=6;fontStyle=5;overflow=hidden;whiteSpace=wrap;html=1;shadow=1;" parent="n2QR_PZvcFtyS0Cn1Ecn-54" vertex="1">
          <mxGeometry x="30" width="150" height="30" as="geometry">
            <mxRectangle width="150" height="30" as="alternateBounds" />
          </mxGeometry>
        </mxCell>
        <mxCell id="U-YqSaufiQG7ANR-UFTZ-10" value="" style="shape=tableRow;horizontal=0;startSize=0;swimlaneHead=0;swimlaneBody=0;fillColor=none;collapsible=0;dropTarget=0;points=[[0,0.5],[1,0.5]];portConstraint=eastwest;top=0;left=0;right=0;bottom=0;" parent="n2QR_PZvcFtyS0Cn1Ecn-53" vertex="1">
          <mxGeometry y="60" width="180" height="30" as="geometry" />
        </mxCell>
        <mxCell id="U-YqSaufiQG7ANR-UFTZ-11" value="FK" style="shape=partialRectangle;connectable=0;fillColor=none;top=0;left=0;bottom=0;right=0;fontStyle=0;overflow=hidden;whiteSpace=wrap;html=1;" parent="U-YqSaufiQG7ANR-UFTZ-10" vertex="1">
          <mxGeometry width="30" height="30" as="geometry">
            <mxRectangle width="30" height="30" as="alternateBounds" />
          </mxGeometry>
        </mxCell>
        <mxCell id="U-YqSaufiQG7ANR-UFTZ-12" value="emp_id" style="shape=partialRectangle;connectable=0;fillColor=none;top=0;left=0;bottom=0;right=0;align=left;spacingLeft=6;fontStyle=0;overflow=hidden;whiteSpace=wrap;html=1;" parent="U-YqSaufiQG7ANR-UFTZ-10" vertex="1">
          <mxGeometry x="30" width="150" height="30" as="geometry">
            <mxRectangle width="150" height="30" as="alternateBounds" />
          </mxGeometry>
        </mxCell>
        <mxCell id="n2QR_PZvcFtyS0Cn1Ecn-57" value="" style="shape=tableRow;horizontal=0;startSize=0;swimlaneHead=0;swimlaneBody=0;fillColor=none;collapsible=0;dropTarget=0;points=[[0,0.5],[1,0.5]];portConstraint=eastwest;top=0;left=0;right=0;bottom=0;shadow=1;" parent="n2QR_PZvcFtyS0Cn1Ecn-53" vertex="1">
          <mxGeometry y="90" width="180" height="30" as="geometry" />
        </mxCell>
        <mxCell id="n2QR_PZvcFtyS0Cn1Ecn-58" value="" style="shape=partialRectangle;connectable=0;fillColor=none;top=0;left=0;bottom=0;right=0;editable=1;overflow=hidden;whiteSpace=wrap;html=1;shadow=1;" parent="n2QR_PZvcFtyS0Cn1Ecn-57" vertex="1">
          <mxGeometry width="30" height="30" as="geometry">
            <mxRectangle width="30" height="30" as="alternateBounds" />
          </mxGeometry>
        </mxCell>
        <mxCell id="n2QR_PZvcFtyS0Cn1Ecn-59" value="cli_nome" style="shape=partialRectangle;connectable=0;fillColor=none;top=0;left=0;bottom=0;right=0;align=left;spacingLeft=6;overflow=hidden;whiteSpace=wrap;html=1;shadow=1;" parent="n2QR_PZvcFtyS0Cn1Ecn-57" vertex="1">
          <mxGeometry x="30" width="150" height="30" as="geometry">
            <mxRectangle width="150" height="30" as="alternateBounds" />
          </mxGeometry>
        </mxCell>
        <mxCell id="n2QR_PZvcFtyS0Cn1Ecn-60" value="" style="shape=tableRow;horizontal=0;startSize=0;swimlaneHead=0;swimlaneBody=0;fillColor=none;collapsible=0;dropTarget=0;points=[[0,0.5],[1,0.5]];portConstraint=eastwest;top=0;left=0;right=0;bottom=0;shadow=1;" parent="n2QR_PZvcFtyS0Cn1Ecn-53" vertex="1">
          <mxGeometry y="120" width="180" height="30" as="geometry" />
        </mxCell>
        <mxCell id="n2QR_PZvcFtyS0Cn1Ecn-61" value="" style="shape=partialRectangle;connectable=0;fillColor=none;top=0;left=0;bottom=0;right=0;editable=1;overflow=hidden;whiteSpace=wrap;html=1;shadow=1;" parent="n2QR_PZvcFtyS0Cn1Ecn-60" vertex="1">
          <mxGeometry width="30" height="30" as="geometry">
            <mxRectangle width="30" height="30" as="alternateBounds" />
          </mxGeometry>
        </mxCell>
        <mxCell id="n2QR_PZvcFtyS0Cn1Ecn-62" value="cli_email" style="shape=partialRectangle;connectable=0;fillColor=none;top=0;left=0;bottom=0;right=0;align=left;spacingLeft=6;overflow=hidden;whiteSpace=wrap;html=1;shadow=1;" parent="n2QR_PZvcFtyS0Cn1Ecn-60" vertex="1">
          <mxGeometry x="30" width="150" height="30" as="geometry">
            <mxRectangle width="150" height="30" as="alternateBounds" />
          </mxGeometry>
        </mxCell>
        <mxCell id="n2QR_PZvcFtyS0Cn1Ecn-63" value="" style="shape=tableRow;horizontal=0;startSize=0;swimlaneHead=0;swimlaneBody=0;fillColor=none;collapsible=0;dropTarget=0;points=[[0,0.5],[1,0.5]];portConstraint=eastwest;top=0;left=0;right=0;bottom=0;shadow=1;" parent="n2QR_PZvcFtyS0Cn1Ecn-53" vertex="1">
          <mxGeometry y="150" width="180" height="30" as="geometry" />
        </mxCell>
        <mxCell id="n2QR_PZvcFtyS0Cn1Ecn-64" value="" style="shape=partialRectangle;connectable=0;fillColor=none;top=0;left=0;bottom=0;right=0;editable=1;overflow=hidden;whiteSpace=wrap;html=1;shadow=1;" parent="n2QR_PZvcFtyS0Cn1Ecn-63" vertex="1">
          <mxGeometry width="30" height="30" as="geometry">
            <mxRectangle width="30" height="30" as="alternateBounds" />
          </mxGeometry>
        </mxCell>
        <mxCell id="n2QR_PZvcFtyS0Cn1Ecn-65" value="cli_cel" style="shape=partialRectangle;connectable=0;fillColor=none;top=0;left=0;bottom=0;right=0;align=left;spacingLeft=6;overflow=hidden;whiteSpace=wrap;html=1;shadow=1;" parent="n2QR_PZvcFtyS0Cn1Ecn-63" vertex="1">
          <mxGeometry x="30" width="150" height="30" as="geometry">
            <mxRectangle width="150" height="30" as="alternateBounds" />
          </mxGeometry>
        </mxCell>
        <mxCell id="Fvn3LyL0s-04VDup8MQJ-13" value="" style="shape=tableRow;horizontal=0;startSize=0;swimlaneHead=0;swimlaneBody=0;fillColor=none;collapsible=0;dropTarget=0;points=[[0,0.5],[1,0.5]];portConstraint=eastwest;top=0;left=0;right=0;bottom=0;shadow=1;" parent="n2QR_PZvcFtyS0Cn1Ecn-53" vertex="1">
          <mxGeometry y="180" width="180" height="30" as="geometry" />
        </mxCell>
        <mxCell id="Fvn3LyL0s-04VDup8MQJ-14" value="" style="shape=partialRectangle;connectable=0;fillColor=none;top=0;left=0;bottom=0;right=0;editable=1;overflow=hidden;shadow=1;" parent="Fvn3LyL0s-04VDup8MQJ-13" vertex="1">
          <mxGeometry width="30" height="30" as="geometry">
            <mxRectangle width="30" height="30" as="alternateBounds" />
          </mxGeometry>
        </mxCell>
        <mxCell id="Fvn3LyL0s-04VDup8MQJ-15" value="cli_end" style="shape=partialRectangle;connectable=0;fillColor=none;top=0;left=0;bottom=0;right=0;align=left;spacingLeft=6;overflow=hidden;shadow=1;" parent="Fvn3LyL0s-04VDup8MQJ-13" vertex="1">
          <mxGeometry x="30" width="150" height="30" as="geometry">
            <mxRectangle width="150" height="30" as="alternateBounds" />
          </mxGeometry>
        </mxCell>
        <mxCell id="n2QR_PZvcFtyS0Cn1Ecn-66" value="pedido" style="shape=table;startSize=30;container=1;collapsible=1;childLayout=tableLayout;fixedRows=1;rowLines=0;fontStyle=1;align=center;resizeLast=1;html=1;shadow=1;" parent="1" vertex="1">
          <mxGeometry x="330" y="920" width="180" height="180" as="geometry" />
        </mxCell>
        <mxCell id="n2QR_PZvcFtyS0Cn1Ecn-67" value="" style="shape=tableRow;horizontal=0;startSize=0;swimlaneHead=0;swimlaneBody=0;fillColor=none;collapsible=0;dropTarget=0;points=[[0,0.5],[1,0.5]];portConstraint=eastwest;top=0;left=0;right=0;bottom=1;shadow=1;" parent="n2QR_PZvcFtyS0Cn1Ecn-66" vertex="1">
          <mxGeometry y="30" width="180" height="30" as="geometry" />
        </mxCell>
        <mxCell id="n2QR_PZvcFtyS0Cn1Ecn-68" value="PK" style="shape=partialRectangle;connectable=0;fillColor=none;top=0;left=0;bottom=0;right=0;fontStyle=1;overflow=hidden;whiteSpace=wrap;html=1;shadow=1;" parent="n2QR_PZvcFtyS0Cn1Ecn-67" vertex="1">
          <mxGeometry width="30" height="30" as="geometry">
            <mxRectangle width="30" height="30" as="alternateBounds" />
          </mxGeometry>
        </mxCell>
        <mxCell id="n2QR_PZvcFtyS0Cn1Ecn-69" value="ped_id" style="shape=partialRectangle;connectable=0;fillColor=none;top=0;left=0;bottom=0;right=0;align=left;spacingLeft=6;fontStyle=5;overflow=hidden;whiteSpace=wrap;html=1;shadow=1;" parent="n2QR_PZvcFtyS0Cn1Ecn-67" vertex="1">
          <mxGeometry x="30" width="150" height="30" as="geometry">
            <mxRectangle width="150" height="30" as="alternateBounds" />
          </mxGeometry>
        </mxCell>
        <mxCell id="Fvn3LyL0s-04VDup8MQJ-16" value="" style="shape=tableRow;horizontal=0;startSize=0;swimlaneHead=0;swimlaneBody=0;fillColor=none;collapsible=0;dropTarget=0;points=[[0,0.5],[1,0.5]];portConstraint=eastwest;top=0;left=0;right=0;bottom=0;shadow=1;" parent="n2QR_PZvcFtyS0Cn1Ecn-66" vertex="1">
          <mxGeometry y="60" width="180" height="30" as="geometry" />
        </mxCell>
        <mxCell id="Fvn3LyL0s-04VDup8MQJ-17" value="FK" style="shape=partialRectangle;connectable=0;fillColor=none;top=0;left=0;bottom=0;right=0;fontStyle=0;overflow=hidden;whiteSpace=wrap;html=1;shadow=1;" parent="Fvn3LyL0s-04VDup8MQJ-16" vertex="1">
          <mxGeometry width="30" height="30" as="geometry">
            <mxRectangle width="30" height="30" as="alternateBounds" />
          </mxGeometry>
        </mxCell>
        <mxCell id="Fvn3LyL0s-04VDup8MQJ-18" value="cli_id" style="shape=partialRectangle;connectable=0;fillColor=none;top=0;left=0;bottom=0;right=0;align=left;spacingLeft=6;fontStyle=0;overflow=hidden;whiteSpace=wrap;html=1;shadow=1;" parent="Fvn3LyL0s-04VDup8MQJ-16" vertex="1">
          <mxGeometry x="30" width="150" height="30" as="geometry">
            <mxRectangle width="150" height="30" as="alternateBounds" />
          </mxGeometry>
        </mxCell>
        <mxCell id="n2QR_PZvcFtyS0Cn1Ecn-70" value="" style="shape=tableRow;horizontal=0;startSize=0;swimlaneHead=0;swimlaneBody=0;fillColor=none;collapsible=0;dropTarget=0;points=[[0,0.5],[1,0.5]];portConstraint=eastwest;top=0;left=0;right=0;bottom=0;shadow=1;" parent="n2QR_PZvcFtyS0Cn1Ecn-66" vertex="1">
          <mxGeometry y="90" width="180" height="40" as="geometry" />
        </mxCell>
        <mxCell id="n2QR_PZvcFtyS0Cn1Ecn-71" value="" style="shape=partialRectangle;connectable=0;fillColor=none;top=0;left=0;bottom=0;right=0;editable=1;overflow=hidden;whiteSpace=wrap;html=1;shadow=1;" parent="n2QR_PZvcFtyS0Cn1Ecn-70" vertex="1">
          <mxGeometry width="30" height="40" as="geometry">
            <mxRectangle width="30" height="40" as="alternateBounds" />
          </mxGeometry>
        </mxCell>
        <mxCell id="n2QR_PZvcFtyS0Cn1Ecn-72" value="ped_data" style="shape=partialRectangle;connectable=0;fillColor=none;top=0;left=0;bottom=0;right=0;align=left;spacingLeft=6;overflow=hidden;whiteSpace=wrap;html=1;shadow=1;" parent="n2QR_PZvcFtyS0Cn1Ecn-70" vertex="1">
          <mxGeometry x="30" width="150" height="40" as="geometry">
            <mxRectangle width="150" height="40" as="alternateBounds" />
          </mxGeometry>
        </mxCell>
        <mxCell id="n2QR_PZvcFtyS0Cn1Ecn-73" value="" style="shape=tableRow;horizontal=0;startSize=0;swimlaneHead=0;swimlaneBody=0;fillColor=none;collapsible=0;dropTarget=0;points=[[0,0.5],[1,0.5]];portConstraint=eastwest;top=0;left=0;right=0;bottom=0;shadow=1;" parent="n2QR_PZvcFtyS0Cn1Ecn-66" vertex="1">
          <mxGeometry y="130" width="180" height="20" as="geometry" />
        </mxCell>
        <mxCell id="n2QR_PZvcFtyS0Cn1Ecn-74" value="" style="shape=partialRectangle;connectable=0;fillColor=none;top=0;left=0;bottom=0;right=0;editable=1;overflow=hidden;whiteSpace=wrap;html=1;shadow=1;" parent="n2QR_PZvcFtyS0Cn1Ecn-73" vertex="1">
          <mxGeometry width="30" height="20" as="geometry">
            <mxRectangle width="30" height="20" as="alternateBounds" />
          </mxGeometry>
        </mxCell>
        <mxCell id="n2QR_PZvcFtyS0Cn1Ecn-75" value="ped_status" style="shape=partialRectangle;connectable=0;fillColor=none;top=0;left=0;bottom=0;right=0;align=left;spacingLeft=6;overflow=hidden;whiteSpace=wrap;html=1;shadow=1;" parent="n2QR_PZvcFtyS0Cn1Ecn-73" vertex="1">
          <mxGeometry x="30" width="150" height="20" as="geometry">
            <mxRectangle width="150" height="20" as="alternateBounds" />
          </mxGeometry>
        </mxCell>
        <mxCell id="n2QR_PZvcFtyS0Cn1Ecn-76" value="" style="shape=tableRow;horizontal=0;startSize=0;swimlaneHead=0;swimlaneBody=0;fillColor=none;collapsible=0;dropTarget=0;points=[[0,0.5],[1,0.5]];portConstraint=eastwest;top=0;left=0;right=0;bottom=0;shadow=1;" parent="n2QR_PZvcFtyS0Cn1Ecn-66" vertex="1">
          <mxGeometry y="150" width="180" height="30" as="geometry" />
        </mxCell>
        <mxCell id="n2QR_PZvcFtyS0Cn1Ecn-77" value="" style="shape=partialRectangle;connectable=0;fillColor=none;top=0;left=0;bottom=0;right=0;editable=1;overflow=hidden;whiteSpace=wrap;html=1;shadow=1;" parent="n2QR_PZvcFtyS0Cn1Ecn-76" vertex="1">
          <mxGeometry width="30" height="30" as="geometry">
            <mxRectangle width="30" height="30" as="alternateBounds" />
          </mxGeometry>
        </mxCell>
        <mxCell id="n2QR_PZvcFtyS0Cn1Ecn-78" value="ped_valor_total" style="shape=partialRectangle;connectable=0;fillColor=none;top=0;left=0;bottom=0;right=0;align=left;spacingLeft=6;overflow=hidden;whiteSpace=wrap;html=1;shadow=1;" parent="n2QR_PZvcFtyS0Cn1Ecn-76" vertex="1">
          <mxGeometry x="30" width="150" height="30" as="geometry">
            <mxRectangle width="150" height="30" as="alternateBounds" />
          </mxGeometry>
        </mxCell>
        <mxCell id="n2QR_PZvcFtyS0Cn1Ecn-92" value="pedido_produtos" style="shape=table;startSize=30;container=1;collapsible=1;childLayout=tableLayout;fixedRows=1;rowLines=0;fontStyle=1;align=center;resizeLast=1;html=1;shadow=1;" parent="1" vertex="1">
          <mxGeometry x="690" y="545" width="180" height="180" as="geometry" />
        </mxCell>
        <mxCell id="n2QR_PZvcFtyS0Cn1Ecn-93" value="" style="shape=tableRow;horizontal=0;startSize=0;swimlaneHead=0;swimlaneBody=0;fillColor=none;collapsible=0;dropTarget=0;points=[[0,0.5],[1,0.5]];portConstraint=eastwest;top=0;left=0;right=0;bottom=1;shadow=1;" parent="n2QR_PZvcFtyS0Cn1Ecn-92" vertex="1">
          <mxGeometry y="30" width="180" height="30" as="geometry" />
        </mxCell>
        <mxCell id="n2QR_PZvcFtyS0Cn1Ecn-94" value="PK" style="shape=partialRectangle;connectable=0;fillColor=none;top=0;left=0;bottom=0;right=0;fontStyle=1;overflow=hidden;whiteSpace=wrap;html=1;shadow=1;" parent="n2QR_PZvcFtyS0Cn1Ecn-93" vertex="1">
          <mxGeometry width="30" height="30" as="geometry">
            <mxRectangle width="30" height="30" as="alternateBounds" />
          </mxGeometry>
        </mxCell>
        <mxCell id="n2QR_PZvcFtyS0Cn1Ecn-95" value="PedPro_id" style="shape=partialRectangle;connectable=0;fillColor=none;top=0;left=0;bottom=0;right=0;align=left;spacingLeft=6;fontStyle=5;overflow=hidden;whiteSpace=wrap;html=1;shadow=1;" parent="n2QR_PZvcFtyS0Cn1Ecn-93" vertex="1">
          <mxGeometry x="30" width="150" height="30" as="geometry">
            <mxRectangle width="150" height="30" as="alternateBounds" />
          </mxGeometry>
        </mxCell>
        <mxCell id="n2QR_PZvcFtyS0Cn1Ecn-99" value="" style="shape=tableRow;horizontal=0;startSize=0;swimlaneHead=0;swimlaneBody=0;fillColor=none;collapsible=0;dropTarget=0;points=[[0,0.5],[1,0.5]];portConstraint=eastwest;top=0;left=0;right=0;bottom=0;shadow=1;" parent="n2QR_PZvcFtyS0Cn1Ecn-92" vertex="1">
          <mxGeometry y="60" width="180" height="30" as="geometry" />
        </mxCell>
        <mxCell id="n2QR_PZvcFtyS0Cn1Ecn-100" value="FK" style="shape=partialRectangle;connectable=0;fillColor=none;top=0;left=0;bottom=0;right=0;editable=1;overflow=hidden;whiteSpace=wrap;html=1;shadow=1;" parent="n2QR_PZvcFtyS0Cn1Ecn-99" vertex="1">
          <mxGeometry width="30" height="30" as="geometry">
            <mxRectangle width="30" height="30" as="alternateBounds" />
          </mxGeometry>
        </mxCell>
        <mxCell id="n2QR_PZvcFtyS0Cn1Ecn-101" value="pro_id" style="shape=partialRectangle;connectable=0;fillColor=none;top=0;left=0;bottom=0;right=0;align=left;spacingLeft=6;overflow=hidden;whiteSpace=wrap;html=1;shadow=1;" parent="n2QR_PZvcFtyS0Cn1Ecn-99" vertex="1">
          <mxGeometry x="30" width="150" height="30" as="geometry">
            <mxRectangle width="150" height="30" as="alternateBounds" />
          </mxGeometry>
        </mxCell>
        <mxCell id="n2QR_PZvcFtyS0Cn1Ecn-96" value="" style="shape=tableRow;horizontal=0;startSize=0;swimlaneHead=0;swimlaneBody=0;fillColor=none;collapsible=0;dropTarget=0;points=[[0,0.5],[1,0.5]];portConstraint=eastwest;top=0;left=0;right=0;bottom=0;shadow=1;" parent="n2QR_PZvcFtyS0Cn1Ecn-92" vertex="1">
          <mxGeometry y="90" width="180" height="30" as="geometry" />
        </mxCell>
        <mxCell id="n2QR_PZvcFtyS0Cn1Ecn-97" value="FK" style="shape=partialRectangle;connectable=0;fillColor=none;top=0;left=0;bottom=0;right=0;editable=1;overflow=hidden;whiteSpace=wrap;html=1;shadow=1;" parent="n2QR_PZvcFtyS0Cn1Ecn-96" vertex="1">
          <mxGeometry width="30" height="30" as="geometry">
            <mxRectangle width="30" height="30" as="alternateBounds" />
          </mxGeometry>
        </mxCell>
        <mxCell id="n2QR_PZvcFtyS0Cn1Ecn-98" value="ped_id" style="shape=partialRectangle;connectable=0;fillColor=none;top=0;left=0;bottom=0;right=0;align=left;spacingLeft=6;overflow=hidden;whiteSpace=wrap;html=1;shadow=1;" parent="n2QR_PZvcFtyS0Cn1Ecn-96" vertex="1">
          <mxGeometry x="30" width="150" height="30" as="geometry">
            <mxRectangle width="150" height="30" as="alternateBounds" />
          </mxGeometry>
        </mxCell>
        <mxCell id="n2QR_PZvcFtyS0Cn1Ecn-102" value="" style="shape=tableRow;horizontal=0;startSize=0;swimlaneHead=0;swimlaneBody=0;fillColor=none;collapsible=0;dropTarget=0;points=[[0,0.5],[1,0.5]];portConstraint=eastwest;top=0;left=0;right=0;bottom=0;shadow=1;" parent="n2QR_PZvcFtyS0Cn1Ecn-92" vertex="1">
          <mxGeometry y="120" width="180" height="30" as="geometry" />
        </mxCell>
        <mxCell id="n2QR_PZvcFtyS0Cn1Ecn-103" value="" style="shape=partialRectangle;connectable=0;fillColor=none;top=0;left=0;bottom=0;right=0;editable=1;overflow=hidden;whiteSpace=wrap;html=1;shadow=1;" parent="n2QR_PZvcFtyS0Cn1Ecn-102" vertex="1">
          <mxGeometry width="30" height="30" as="geometry">
            <mxRectangle width="30" height="30" as="alternateBounds" />
          </mxGeometry>
        </mxCell>
        <mxCell id="n2QR_PZvcFtyS0Cn1Ecn-104" value="PedPro_quant" style="shape=partialRectangle;connectable=0;fillColor=none;top=0;left=0;bottom=0;right=0;align=left;spacingLeft=6;overflow=hidden;whiteSpace=wrap;html=1;shadow=1;" parent="n2QR_PZvcFtyS0Cn1Ecn-102" vertex="1">
          <mxGeometry x="30" width="150" height="30" as="geometry">
            <mxRectangle width="150" height="30" as="alternateBounds" />
          </mxGeometry>
        </mxCell>
        <mxCell id="bdou0zgwuHRvf7gCf9o--5" value="" style="shape=tableRow;horizontal=0;startSize=0;swimlaneHead=0;swimlaneBody=0;fillColor=none;collapsible=0;dropTarget=0;points=[[0,0.5],[1,0.5]];portConstraint=eastwest;top=0;left=0;right=0;bottom=0;shadow=1;" parent="n2QR_PZvcFtyS0Cn1Ecn-92" vertex="1">
          <mxGeometry y="150" width="180" height="30" as="geometry" />
        </mxCell>
        <mxCell id="bdou0zgwuHRvf7gCf9o--6" value="" style="shape=partialRectangle;connectable=0;fillColor=none;top=0;left=0;bottom=0;right=0;editable=1;overflow=hidden;whiteSpace=wrap;html=1;shadow=1;" parent="bdou0zgwuHRvf7gCf9o--5" vertex="1">
          <mxGeometry width="30" height="30" as="geometry">
            <mxRectangle width="30" height="30" as="alternateBounds" />
          </mxGeometry>
        </mxCell>
        <mxCell id="bdou0zgwuHRvf7gCf9o--7" value="PedPro_preco_unit" style="shape=partialRectangle;connectable=0;fillColor=none;top=0;left=0;bottom=0;right=0;align=left;spacingLeft=6;overflow=hidden;whiteSpace=wrap;html=1;shadow=1;" parent="bdou0zgwuHRvf7gCf9o--5" vertex="1">
          <mxGeometry x="30" width="150" height="30" as="geometry">
            <mxRectangle width="150" height="30" as="alternateBounds" />
          </mxGeometry>
        </mxCell>
        <mxCell id="n2QR_PZvcFtyS0Cn1Ecn-118" value="pagamento" style="shape=table;startSize=30;container=1;collapsible=1;childLayout=tableLayout;fixedRows=1;rowLines=0;fontStyle=1;align=center;resizeLast=1;html=1;shadow=1;" parent="1" vertex="1">
          <mxGeometry x="690" y="760" width="180" height="180" as="geometry" />
        </mxCell>
        <mxCell id="n2QR_PZvcFtyS0Cn1Ecn-119" value="" style="shape=tableRow;horizontal=0;startSize=0;swimlaneHead=0;swimlaneBody=0;fillColor=none;collapsible=0;dropTarget=0;points=[[0,0.5],[1,0.5]];portConstraint=eastwest;top=0;left=0;right=0;bottom=1;shadow=1;" parent="n2QR_PZvcFtyS0Cn1Ecn-118" vertex="1">
          <mxGeometry y="30" width="180" height="30" as="geometry" />
        </mxCell>
        <mxCell id="n2QR_PZvcFtyS0Cn1Ecn-120" value="PK" style="shape=partialRectangle;connectable=0;fillColor=none;top=0;left=0;bottom=0;right=0;fontStyle=1;overflow=hidden;whiteSpace=wrap;html=1;shadow=1;" parent="n2QR_PZvcFtyS0Cn1Ecn-119" vertex="1">
          <mxGeometry width="30" height="30" as="geometry">
            <mxRectangle width="30" height="30" as="alternateBounds" />
          </mxGeometry>
        </mxCell>
        <mxCell id="n2QR_PZvcFtyS0Cn1Ecn-121" value="pag_id" style="shape=partialRectangle;connectable=0;fillColor=none;top=0;left=0;bottom=0;right=0;align=left;spacingLeft=6;fontStyle=5;overflow=hidden;whiteSpace=wrap;html=1;shadow=1;" parent="n2QR_PZvcFtyS0Cn1Ecn-119" vertex="1">
          <mxGeometry x="30" width="150" height="30" as="geometry">
            <mxRectangle width="150" height="30" as="alternateBounds" />
          </mxGeometry>
        </mxCell>
        <mxCell id="Fvn3LyL0s-04VDup8MQJ-19" value="" style="shape=tableRow;horizontal=0;startSize=0;swimlaneHead=0;swimlaneBody=0;fillColor=none;collapsible=0;dropTarget=0;points=[[0,0.5],[1,0.5]];portConstraint=eastwest;top=0;left=0;right=0;bottom=0;shadow=1;" parent="n2QR_PZvcFtyS0Cn1Ecn-118" vertex="1">
          <mxGeometry y="60" width="180" height="30" as="geometry" />
        </mxCell>
        <mxCell id="Fvn3LyL0s-04VDup8MQJ-20" value="FK" style="shape=partialRectangle;connectable=0;fillColor=none;top=0;left=0;bottom=0;right=0;fontStyle=0;overflow=hidden;whiteSpace=wrap;html=1;shadow=1;" parent="Fvn3LyL0s-04VDup8MQJ-19" vertex="1">
          <mxGeometry width="30" height="30" as="geometry">
            <mxRectangle width="30" height="30" as="alternateBounds" />
          </mxGeometry>
        </mxCell>
        <mxCell id="Fvn3LyL0s-04VDup8MQJ-21" value="ped_id" style="shape=partialRectangle;connectable=0;fillColor=none;top=0;left=0;bottom=0;right=0;align=left;spacingLeft=6;fontStyle=0;overflow=hidden;whiteSpace=wrap;html=1;shadow=1;" parent="Fvn3LyL0s-04VDup8MQJ-19" vertex="1">
          <mxGeometry x="30" width="150" height="30" as="geometry">
            <mxRectangle width="150" height="30" as="alternateBounds" />
          </mxGeometry>
        </mxCell>
        <mxCell id="n2QR_PZvcFtyS0Cn1Ecn-122" value="" style="shape=tableRow;horizontal=0;startSize=0;swimlaneHead=0;swimlaneBody=0;fillColor=none;collapsible=0;dropTarget=0;points=[[0,0.5],[1,0.5]];portConstraint=eastwest;top=0;left=0;right=0;bottom=0;shadow=1;" parent="n2QR_PZvcFtyS0Cn1Ecn-118" vertex="1">
          <mxGeometry y="90" width="180" height="30" as="geometry" />
        </mxCell>
        <mxCell id="n2QR_PZvcFtyS0Cn1Ecn-123" value="" style="shape=partialRectangle;connectable=0;fillColor=none;top=0;left=0;bottom=0;right=0;editable=1;overflow=hidden;whiteSpace=wrap;html=1;shadow=1;" parent="n2QR_PZvcFtyS0Cn1Ecn-122" vertex="1">
          <mxGeometry width="30" height="30" as="geometry">
            <mxRectangle width="30" height="30" as="alternateBounds" />
          </mxGeometry>
        </mxCell>
        <mxCell id="n2QR_PZvcFtyS0Cn1Ecn-124" value="pag_metodo" style="shape=partialRectangle;connectable=0;fillColor=none;top=0;left=0;bottom=0;right=0;align=left;spacingLeft=6;overflow=hidden;whiteSpace=wrap;html=1;shadow=1;" parent="n2QR_PZvcFtyS0Cn1Ecn-122" vertex="1">
          <mxGeometry x="30" width="150" height="30" as="geometry">
            <mxRectangle width="150" height="30" as="alternateBounds" />
          </mxGeometry>
        </mxCell>
        <mxCell id="n2QR_PZvcFtyS0Cn1Ecn-125" value="" style="shape=tableRow;horizontal=0;startSize=0;swimlaneHead=0;swimlaneBody=0;fillColor=none;collapsible=0;dropTarget=0;points=[[0,0.5],[1,0.5]];portConstraint=eastwest;top=0;left=0;right=0;bottom=0;shadow=1;" parent="n2QR_PZvcFtyS0Cn1Ecn-118" vertex="1">
          <mxGeometry y="120" width="180" height="30" as="geometry" />
        </mxCell>
        <mxCell id="n2QR_PZvcFtyS0Cn1Ecn-126" value="" style="shape=partialRectangle;connectable=0;fillColor=none;top=0;left=0;bottom=0;right=0;editable=1;overflow=hidden;whiteSpace=wrap;html=1;shadow=1;" parent="n2QR_PZvcFtyS0Cn1Ecn-125" vertex="1">
          <mxGeometry width="30" height="30" as="geometry">
            <mxRectangle width="30" height="30" as="alternateBounds" />
          </mxGeometry>
        </mxCell>
        <mxCell id="n2QR_PZvcFtyS0Cn1Ecn-127" value="pag_data" style="shape=partialRectangle;connectable=0;fillColor=none;top=0;left=0;bottom=0;right=0;align=left;spacingLeft=6;overflow=hidden;whiteSpace=wrap;html=1;shadow=1;" parent="n2QR_PZvcFtyS0Cn1Ecn-125" vertex="1">
          <mxGeometry x="30" width="150" height="30" as="geometry">
            <mxRectangle width="150" height="30" as="alternateBounds" />
          </mxGeometry>
        </mxCell>
        <mxCell id="n2QR_PZvcFtyS0Cn1Ecn-128" value="" style="shape=tableRow;horizontal=0;startSize=0;swimlaneHead=0;swimlaneBody=0;fillColor=none;collapsible=0;dropTarget=0;points=[[0,0.5],[1,0.5]];portConstraint=eastwest;top=0;left=0;right=0;bottom=0;shadow=1;" parent="n2QR_PZvcFtyS0Cn1Ecn-118" vertex="1">
          <mxGeometry y="150" width="180" height="30" as="geometry" />
        </mxCell>
        <mxCell id="n2QR_PZvcFtyS0Cn1Ecn-129" value="" style="shape=partialRectangle;connectable=0;fillColor=none;top=0;left=0;bottom=0;right=0;editable=1;overflow=hidden;whiteSpace=wrap;html=1;shadow=1;" parent="n2QR_PZvcFtyS0Cn1Ecn-128" vertex="1">
          <mxGeometry width="30" height="30" as="geometry">
            <mxRectangle width="30" height="30" as="alternateBounds" />
          </mxGeometry>
        </mxCell>
        <mxCell id="n2QR_PZvcFtyS0Cn1Ecn-130" value="pag_status" style="shape=partialRectangle;connectable=0;fillColor=none;top=0;left=0;bottom=0;right=0;align=left;spacingLeft=6;overflow=hidden;whiteSpace=wrap;html=1;shadow=1;" parent="n2QR_PZvcFtyS0Cn1Ecn-128" vertex="1">
          <mxGeometry x="30" width="150" height="30" as="geometry">
            <mxRectangle width="150" height="30" as="alternateBounds" />
          </mxGeometry>
        </mxCell>
        <mxCell id="n2QR_PZvcFtyS0Cn1Ecn-131" value="mensagem" style="shape=table;startSize=30;container=1;collapsible=1;childLayout=tableLayout;fixedRows=1;rowLines=0;fontStyle=1;align=center;resizeLast=1;html=1;shadow=1;" parent="1" vertex="1">
          <mxGeometry x="690" y="960" width="180" height="150" as="geometry" />
        </mxCell>
        <mxCell id="n2QR_PZvcFtyS0Cn1Ecn-132" value="" style="shape=tableRow;horizontal=0;startSize=0;swimlaneHead=0;swimlaneBody=0;fillColor=none;collapsible=0;dropTarget=0;points=[[0,0.5],[1,0.5]];portConstraint=eastwest;top=0;left=0;right=0;bottom=1;shadow=1;" parent="n2QR_PZvcFtyS0Cn1Ecn-131" vertex="1">
          <mxGeometry y="30" width="180" height="30" as="geometry" />
        </mxCell>
        <mxCell id="n2QR_PZvcFtyS0Cn1Ecn-133" value="PK" style="shape=partialRectangle;connectable=0;fillColor=none;top=0;left=0;bottom=0;right=0;fontStyle=1;overflow=hidden;whiteSpace=wrap;html=1;shadow=1;" parent="n2QR_PZvcFtyS0Cn1Ecn-132" vertex="1">
          <mxGeometry width="30" height="30" as="geometry">
            <mxRectangle width="30" height="30" as="alternateBounds" />
          </mxGeometry>
        </mxCell>
        <mxCell id="n2QR_PZvcFtyS0Cn1Ecn-134" value="mens_id" style="shape=partialRectangle;connectable=0;fillColor=none;top=0;left=0;bottom=0;right=0;align=left;spacingLeft=6;fontStyle=5;overflow=hidden;whiteSpace=wrap;html=1;shadow=1;" parent="n2QR_PZvcFtyS0Cn1Ecn-132" vertex="1">
          <mxGeometry x="30" width="150" height="30" as="geometry">
            <mxRectangle width="150" height="30" as="alternateBounds" />
          </mxGeometry>
        </mxCell>
        <mxCell id="bdou0zgwuHRvf7gCf9o--70" value="" style="shape=tableRow;horizontal=0;startSize=0;swimlaneHead=0;swimlaneBody=0;fillColor=none;collapsible=0;dropTarget=0;points=[[0,0.5],[1,0.5]];portConstraint=eastwest;top=0;left=0;right=0;bottom=0;shadow=1;" parent="n2QR_PZvcFtyS0Cn1Ecn-131" vertex="1">
          <mxGeometry y="60" width="180" height="30" as="geometry" />
        </mxCell>
        <mxCell id="bdou0zgwuHRvf7gCf9o--71" value="FK" style="shape=partialRectangle;connectable=0;fillColor=none;top=0;left=0;bottom=0;right=0;fontStyle=0;overflow=hidden;whiteSpace=wrap;html=1;shadow=1;" parent="bdou0zgwuHRvf7gCf9o--70" vertex="1">
          <mxGeometry width="30" height="30" as="geometry">
            <mxRectangle width="30" height="30" as="alternateBounds" />
          </mxGeometry>
        </mxCell>
        <mxCell id="bdou0zgwuHRvf7gCf9o--72" value="ped_id" style="shape=partialRectangle;connectable=0;fillColor=none;top=0;left=0;bottom=0;right=0;align=left;spacingLeft=6;fontStyle=0;overflow=hidden;whiteSpace=wrap;html=1;shadow=1;" parent="bdou0zgwuHRvf7gCf9o--70" vertex="1">
          <mxGeometry x="30" width="150" height="30" as="geometry">
            <mxRectangle width="150" height="30" as="alternateBounds" />
          </mxGeometry>
        </mxCell>
        <mxCell id="n2QR_PZvcFtyS0Cn1Ecn-138" value="" style="shape=tableRow;horizontal=0;startSize=0;swimlaneHead=0;swimlaneBody=0;fillColor=none;collapsible=0;dropTarget=0;points=[[0,0.5],[1,0.5]];portConstraint=eastwest;top=0;left=0;right=0;bottom=0;shadow=1;" parent="n2QR_PZvcFtyS0Cn1Ecn-131" vertex="1">
          <mxGeometry y="90" width="180" height="30" as="geometry" />
        </mxCell>
        <mxCell id="n2QR_PZvcFtyS0Cn1Ecn-139" value="" style="shape=partialRectangle;connectable=0;fillColor=none;top=0;left=0;bottom=0;right=0;editable=1;overflow=hidden;whiteSpace=wrap;html=1;shadow=1;" parent="n2QR_PZvcFtyS0Cn1Ecn-138" vertex="1">
          <mxGeometry width="30" height="30" as="geometry">
            <mxRectangle width="30" height="30" as="alternateBounds" />
          </mxGeometry>
        </mxCell>
        <mxCell id="n2QR_PZvcFtyS0Cn1Ecn-140" value="mens_data_envio" style="shape=partialRectangle;connectable=0;fillColor=none;top=0;left=0;bottom=0;right=0;align=left;spacingLeft=6;overflow=hidden;whiteSpace=wrap;html=1;shadow=1;" parent="n2QR_PZvcFtyS0Cn1Ecn-138" vertex="1">
          <mxGeometry x="30" width="150" height="30" as="geometry">
            <mxRectangle width="150" height="30" as="alternateBounds" />
          </mxGeometry>
        </mxCell>
        <mxCell id="n2QR_PZvcFtyS0Cn1Ecn-141" value="" style="shape=tableRow;horizontal=0;startSize=0;swimlaneHead=0;swimlaneBody=0;fillColor=none;collapsible=0;dropTarget=0;points=[[0,0.5],[1,0.5]];portConstraint=eastwest;top=0;left=0;right=0;bottom=0;shadow=1;" parent="n2QR_PZvcFtyS0Cn1Ecn-131" vertex="1">
          <mxGeometry y="120" width="180" height="30" as="geometry" />
        </mxCell>
        <mxCell id="n2QR_PZvcFtyS0Cn1Ecn-142" value="" style="shape=partialRectangle;connectable=0;fillColor=none;top=0;left=0;bottom=0;right=0;editable=1;overflow=hidden;whiteSpace=wrap;html=1;shadow=1;" parent="n2QR_PZvcFtyS0Cn1Ecn-141" vertex="1">
          <mxGeometry width="30" height="30" as="geometry">
            <mxRectangle width="30" height="30" as="alternateBounds" />
          </mxGeometry>
        </mxCell>
        <mxCell id="n2QR_PZvcFtyS0Cn1Ecn-143" value="mens_status" style="shape=partialRectangle;connectable=0;fillColor=none;top=0;left=0;bottom=0;right=0;align=left;spacingLeft=6;overflow=hidden;whiteSpace=wrap;html=1;shadow=1;" parent="n2QR_PZvcFtyS0Cn1Ecn-141" vertex="1">
          <mxGeometry x="30" width="150" height="30" as="geometry">
            <mxRectangle width="150" height="30" as="alternateBounds" />
          </mxGeometry>
        </mxCell>
        <mxCell id="bdou0zgwuHRvf7gCf9o--26" value="" style="endArrow=ERmany;html=1;rounded=0;elbow=vertical;strokeWidth=2;endSize=12;startSize=12;startArrow=ERone;startFill=0;endFill=0;exitX=0;exitY=0.5;exitDx=0;exitDy=0;shadow=1;entryX=1;entryY=0.5;entryDx=0;entryDy=0;edgeStyle=orthogonalEdgeStyle;" parent="1" source="nPWGh4sjyy6nn9jQ8VMq-2" target="n2QR_PZvcFtyS0Cn1Ecn-21" edge="1">
          <mxGeometry relative="1" as="geometry">
            <mxPoint x="300" y="70" as="sourcePoint" />
            <mxPoint x="180" y="165" as="targetPoint" />
          </mxGeometry>
        </mxCell>
        <mxCell id="bdou0zgwuHRvf7gCf9o--42" value="" style="endArrow=ERmany;html=1;rounded=0;elbow=vertical;strokeWidth=2;endSize=12;startSize=12;startArrow=ERone;startFill=0;endFill=0;shadow=1;exitX=1;exitY=0.5;exitDx=0;exitDy=0;entryX=1;entryY=0.5;entryDx=0;entryDy=0;edgeStyle=orthogonalEdgeStyle;" parent="1" source="nPWGh4sjyy6nn9jQ8VMq-2" target="U-YqSaufiQG7ANR-UFTZ-16" edge="1">
          <mxGeometry relative="1" as="geometry">
            <mxPoint x="680" y="120" as="sourcePoint" />
            <mxPoint x="600" y="170" as="targetPoint" />
            <Array as="points">
              <mxPoint x="580" y="165" />
              <mxPoint x="580" y="120" />
              <mxPoint x="930" y="120" />
              <mxPoint x="930" y="225" />
            </Array>
          </mxGeometry>
        </mxCell>
        <mxCell id="bdou0zgwuHRvf7gCf9o--50" value="" style="endArrow=ERmany;html=1;rounded=0;elbow=vertical;strokeWidth=2;endSize=12;startSize=12;startArrow=ERone;startFill=0;endFill=0;shadow=1;exitX=1;exitY=0.5;exitDx=0;exitDy=0;edgeStyle=orthogonalEdgeStyle;entryX=1;entryY=0.5;entryDx=0;entryDy=0;" parent="1" source="n2QR_PZvcFtyS0Cn1Ecn-41" target="Fvn3LyL0s-04VDup8MQJ-7" edge="1">
          <mxGeometry relative="1" as="geometry">
            <mxPoint x="930" y="480" as="sourcePoint" />
            <mxPoint x="910" y="271" as="targetPoint" />
            <Array as="points">
              <mxPoint x="930" y="459" />
              <mxPoint x="930" y="255" />
            </Array>
          </mxGeometry>
        </mxCell>
        <mxCell id="bdou0zgwuHRvf7gCf9o--54" value="" style="endArrow=ERmany;html=1;rounded=0;elbow=vertical;strokeWidth=2;endSize=12;startSize=12;startArrow=ERone;startFill=0;endFill=0;shadow=1;exitX=0;exitY=0.5;exitDx=0;exitDy=0;entryX=0;entryY=0.5;entryDx=0;entryDy=0;edgeStyle=orthogonalEdgeStyle;" parent="1" source="nPWGh4sjyy6nn9jQ8VMq-2" target="U-YqSaufiQG7ANR-UFTZ-1" edge="1">
          <mxGeometry relative="1" as="geometry">
            <mxPoint x="330" y="500" as="sourcePoint" />
            <mxPoint x="310" y="270" as="targetPoint" />
            <Array as="points">
              <mxPoint x="280" y="165" />
              <mxPoint x="280" y="525" />
            </Array>
          </mxGeometry>
        </mxCell>
        <mxCell id="bdou0zgwuHRvf7gCf9o--58" value="" style="endArrow=ERmany;html=1;rounded=0;elbow=vertical;strokeWidth=2;endSize=12;startSize=12;startArrow=ERone;startFill=0;endFill=0;shadow=1;entryX=1;entryY=0.5;entryDx=0;entryDy=0;exitX=1;exitY=0.5;exitDx=0;exitDy=0;edgeStyle=orthogonalEdgeStyle;" parent="1" source="nPWGh4sjyy6nn9jQ8VMq-2" target="U-YqSaufiQG7ANR-UFTZ-10" edge="1">
          <mxGeometry relative="1" as="geometry">
            <mxPoint x="560" y="630" as="sourcePoint" />
            <mxPoint x="580" y="420" as="targetPoint" />
            <Array as="points">
              <mxPoint x="550" y="165" />
              <mxPoint x="550" y="755" />
            </Array>
          </mxGeometry>
        </mxCell>
        <mxCell id="bdou0zgwuHRvf7gCf9o--62" value="" style="endArrow=ERmany;html=1;rounded=0;elbow=vertical;strokeWidth=2;endSize=12;startSize=12;startArrow=ERone;startFill=0;endFill=0;exitX=0;exitY=0.5;exitDx=0;exitDy=0;shadow=1;" parent="1" source="n2QR_PZvcFtyS0Cn1Ecn-54" edge="1">
          <mxGeometry relative="1" as="geometry">
            <mxPoint x="310" y="760" as="sourcePoint" />
            <mxPoint x="150" y="490" as="targetPoint" />
            <Array as="points">
              <mxPoint x="180" y="725" />
              <mxPoint x="180" y="489" />
            </Array>
          </mxGeometry>
        </mxCell>
        <mxCell id="n2QR_PZvcFtyS0Cn1Ecn-79" value="rotas" style="shape=table;startSize=30;container=1;collapsible=1;childLayout=tableLayout;fixedRows=1;rowLines=0;fontStyle=1;align=center;resizeLast=1;html=1;shadow=1;" parent="1" vertex="1">
          <mxGeometry x="-30" y="414" width="180" height="180" as="geometry" />
        </mxCell>
        <mxCell id="n2QR_PZvcFtyS0Cn1Ecn-80" value="" style="shape=tableRow;horizontal=0;startSize=0;swimlaneHead=0;swimlaneBody=0;fillColor=none;collapsible=0;dropTarget=0;points=[[0,0.5],[1,0.5]];portConstraint=eastwest;top=0;left=0;right=0;bottom=1;shadow=1;" parent="n2QR_PZvcFtyS0Cn1Ecn-79" vertex="1">
          <mxGeometry y="30" width="180" height="30" as="geometry" />
        </mxCell>
        <mxCell id="n2QR_PZvcFtyS0Cn1Ecn-81" value="PK" style="shape=partialRectangle;connectable=0;fillColor=none;top=0;left=0;bottom=0;right=0;fontStyle=1;overflow=hidden;whiteSpace=wrap;html=1;shadow=1;" parent="n2QR_PZvcFtyS0Cn1Ecn-80" vertex="1">
          <mxGeometry width="30" height="30" as="geometry">
            <mxRectangle width="30" height="30" as="alternateBounds" />
          </mxGeometry>
        </mxCell>
        <mxCell id="n2QR_PZvcFtyS0Cn1Ecn-82" value="rot_id" style="shape=partialRectangle;connectable=0;fillColor=none;top=0;left=0;bottom=0;right=0;align=left;spacingLeft=6;fontStyle=5;overflow=hidden;whiteSpace=wrap;html=1;shadow=1;" parent="n2QR_PZvcFtyS0Cn1Ecn-80" vertex="1">
          <mxGeometry x="30" width="150" height="30" as="geometry">
            <mxRectangle width="150" height="30" as="alternateBounds" />
          </mxGeometry>
        </mxCell>
        <mxCell id="n2QR_PZvcFtyS0Cn1Ecn-89" value="" style="shape=tableRow;horizontal=0;startSize=0;swimlaneHead=0;swimlaneBody=0;fillColor=none;collapsible=0;dropTarget=0;points=[[0,0.5],[1,0.5]];portConstraint=eastwest;top=0;left=0;right=0;bottom=0;shadow=1;" parent="n2QR_PZvcFtyS0Cn1Ecn-79" vertex="1">
          <mxGeometry y="60" width="180" height="30" as="geometry" />
        </mxCell>
        <mxCell id="n2QR_PZvcFtyS0Cn1Ecn-90" value="FK" style="shape=partialRectangle;connectable=0;fillColor=none;top=0;left=0;bottom=0;right=0;editable=1;overflow=hidden;whiteSpace=wrap;html=1;shadow=1;" parent="n2QR_PZvcFtyS0Cn1Ecn-89" vertex="1">
          <mxGeometry width="30" height="30" as="geometry">
            <mxRectangle width="30" height="30" as="alternateBounds" />
          </mxGeometry>
        </mxCell>
        <mxCell id="n2QR_PZvcFtyS0Cn1Ecn-91" value="&lt;b&gt;cli_id&lt;/b&gt;" style="shape=partialRectangle;connectable=0;fillColor=none;top=0;left=0;bottom=0;right=0;align=left;spacingLeft=6;overflow=hidden;whiteSpace=wrap;html=1;shadow=1;" parent="n2QR_PZvcFtyS0Cn1Ecn-89" vertex="1">
          <mxGeometry x="30" width="150" height="30" as="geometry">
            <mxRectangle width="150" height="30" as="alternateBounds" />
          </mxGeometry>
        </mxCell>
        <mxCell id="n2QR_PZvcFtyS0Cn1Ecn-83" value="" style="shape=tableRow;horizontal=0;startSize=0;swimlaneHead=0;swimlaneBody=0;fillColor=none;collapsible=0;dropTarget=0;points=[[0,0.5],[1,0.5]];portConstraint=eastwest;top=0;left=0;right=0;bottom=0;shadow=1;" parent="n2QR_PZvcFtyS0Cn1Ecn-79" vertex="1">
          <mxGeometry y="90" width="180" height="30" as="geometry" />
        </mxCell>
        <mxCell id="n2QR_PZvcFtyS0Cn1Ecn-84" value="" style="shape=partialRectangle;connectable=0;fillColor=none;top=0;left=0;bottom=0;right=0;editable=1;overflow=hidden;whiteSpace=wrap;html=1;shadow=1;" parent="n2QR_PZvcFtyS0Cn1Ecn-83" vertex="1">
          <mxGeometry width="30" height="30" as="geometry">
            <mxRectangle width="30" height="30" as="alternateBounds" />
          </mxGeometry>
        </mxCell>
        <mxCell id="n2QR_PZvcFtyS0Cn1Ecn-85" value="rot_desc" style="shape=partialRectangle;connectable=0;fillColor=none;top=0;left=0;bottom=0;right=0;align=left;spacingLeft=6;overflow=hidden;whiteSpace=wrap;html=1;shadow=1;" parent="n2QR_PZvcFtyS0Cn1Ecn-83" vertex="1">
          <mxGeometry x="30" width="150" height="30" as="geometry">
            <mxRectangle width="150" height="30" as="alternateBounds" />
          </mxGeometry>
        </mxCell>
        <mxCell id="n2QR_PZvcFtyS0Cn1Ecn-86" value="" style="shape=tableRow;horizontal=0;startSize=0;swimlaneHead=0;swimlaneBody=0;fillColor=none;collapsible=0;dropTarget=0;points=[[0,0.5],[1,0.5]];portConstraint=eastwest;top=0;left=0;right=0;bottom=0;shadow=1;" parent="n2QR_PZvcFtyS0Cn1Ecn-79" vertex="1">
          <mxGeometry y="120" width="180" height="30" as="geometry" />
        </mxCell>
        <mxCell id="n2QR_PZvcFtyS0Cn1Ecn-87" value="" style="shape=partialRectangle;connectable=0;fillColor=none;top=0;left=0;bottom=0;right=0;editable=1;overflow=hidden;whiteSpace=wrap;html=1;shadow=1;" parent="n2QR_PZvcFtyS0Cn1Ecn-86" vertex="1">
          <mxGeometry width="30" height="30" as="geometry">
            <mxRectangle width="30" height="30" as="alternateBounds" />
          </mxGeometry>
        </mxCell>
        <mxCell id="n2QR_PZvcFtyS0Cn1Ecn-88" value="rot_dist" style="shape=partialRectangle;connectable=0;fillColor=none;top=0;left=0;bottom=0;right=0;align=left;spacingLeft=6;overflow=hidden;whiteSpace=wrap;html=1;shadow=1;" parent="n2QR_PZvcFtyS0Cn1Ecn-86" vertex="1">
          <mxGeometry x="30" width="150" height="30" as="geometry">
            <mxRectangle width="150" height="30" as="alternateBounds" />
          </mxGeometry>
        </mxCell>
        <mxCell id="U-YqSaufiQG7ANR-UFTZ-13" value="" style="shape=tableRow;horizontal=0;startSize=0;swimlaneHead=0;swimlaneBody=0;fillColor=none;collapsible=0;dropTarget=0;points=[[0,0.5],[1,0.5]];portConstraint=eastwest;top=0;left=0;right=0;bottom=0;" parent="n2QR_PZvcFtyS0Cn1Ecn-79" vertex="1">
          <mxGeometry y="150" width="180" height="30" as="geometry" />
        </mxCell>
        <mxCell id="U-YqSaufiQG7ANR-UFTZ-14" value="" style="shape=partialRectangle;connectable=0;fillColor=none;top=0;left=0;bottom=0;right=0;editable=1;overflow=hidden;" parent="U-YqSaufiQG7ANR-UFTZ-13" vertex="1">
          <mxGeometry width="30" height="30" as="geometry">
            <mxRectangle width="30" height="30" as="alternateBounds" />
          </mxGeometry>
        </mxCell>
        <mxCell id="U-YqSaufiQG7ANR-UFTZ-15" value="rot_data" style="shape=partialRectangle;connectable=0;fillColor=none;top=0;left=0;bottom=0;right=0;align=left;spacingLeft=6;overflow=hidden;" parent="U-YqSaufiQG7ANR-UFTZ-13" vertex="1">
          <mxGeometry x="30" width="150" height="30" as="geometry">
            <mxRectangle width="150" height="30" as="alternateBounds" />
          </mxGeometry>
        </mxCell>
        <mxCell id="bdou0zgwuHRvf7gCf9o--63" value="" style="endArrow=ERmany;html=1;rounded=0;elbow=vertical;strokeWidth=2;endSize=12;startSize=12;startArrow=ERone;startFill=0;endFill=0;exitX=0;exitY=0.5;exitDx=0;exitDy=0;entryX=0;entryY=0.5;entryDx=0;entryDy=0;shadow=1;edgeStyle=orthogonalEdgeStyle;" parent="1" source="n2QR_PZvcFtyS0Cn1Ecn-54" target="Fvn3LyL0s-04VDup8MQJ-16" edge="1">
          <mxGeometry relative="1" as="geometry">
            <mxPoint x="330" y="930" as="sourcePoint" />
            <mxPoint x="170" y="930" as="targetPoint" />
            <Array as="points">
              <mxPoint x="280" y="725" />
              <mxPoint x="280" y="995" />
            </Array>
          </mxGeometry>
        </mxCell>
        <mxCell id="bdou0zgwuHRvf7gCf9o--64" value="" style="endArrow=ERmany;html=1;rounded=0;elbow=vertical;strokeWidth=2;endSize=12;startSize=12;startArrow=ERone;startFill=0;endFill=0;exitX=1;exitY=0.5;exitDx=0;exitDy=0;entryX=0;entryY=0.5;entryDx=0;entryDy=0;shadow=1;edgeStyle=orthogonalEdgeStyle;" parent="1" source="n2QR_PZvcFtyS0Cn1Ecn-67" target="n2QR_PZvcFtyS0Cn1Ecn-96" edge="1">
          <mxGeometry relative="1" as="geometry">
            <mxPoint x="710" y="1000" as="sourcePoint" />
            <mxPoint x="550" y="1000" as="targetPoint" />
          </mxGeometry>
        </mxCell>
        <mxCell id="bdou0zgwuHRvf7gCf9o--65" value="" style="endArrow=ERmany;html=1;rounded=0;elbow=vertical;strokeWidth=2;endSize=12;startSize=12;startArrow=ERone;startFill=0;endFill=0;entryX=0;entryY=0.5;entryDx=0;entryDy=0;shadow=1;edgeStyle=orthogonalEdgeStyle;exitX=0;exitY=0.5;exitDx=0;exitDy=0;" parent="1" source="n2QR_PZvcFtyS0Cn1Ecn-2" target="n2QR_PZvcFtyS0Cn1Ecn-99" edge="1">
          <mxGeometry relative="1" as="geometry">
            <mxPoint x="710" y="190" as="sourcePoint" />
            <mxPoint x="560" y="230" as="targetPoint" />
            <Array as="points">
              <mxPoint x="660" y="195" />
              <mxPoint x="660" y="620" />
            </Array>
          </mxGeometry>
        </mxCell>
        <mxCell id="bdou0zgwuHRvf7gCf9o--69" value="" style="endArrow=ERmany;html=1;rounded=0;elbow=vertical;strokeWidth=2;endSize=12;startSize=12;startArrow=ERone;startFill=0;endFill=0;entryX=0;entryY=0.5;entryDx=0;entryDy=0;exitX=1;exitY=0.5;exitDx=0;exitDy=0;shadow=1;edgeStyle=orthogonalEdgeStyle;" parent="1" source="n2QR_PZvcFtyS0Cn1Ecn-67" target="bdou0zgwuHRvf7gCf9o--70" edge="1">
          <mxGeometry relative="1" as="geometry">
            <mxPoint x="300" y="1089.5" as="sourcePoint" />
            <mxPoint x="140" y="1089.5" as="targetPoint" />
          </mxGeometry>
        </mxCell>
        <mxCell id="bdou0zgwuHRvf7gCf9o--74" value="" style="endArrow=ERmany;html=1;rounded=0;elbow=vertical;strokeWidth=2;endSize=12;startSize=12;startArrow=ERone;startFill=0;endFill=0;exitX=1;exitY=0.5;exitDx=0;exitDy=0;entryX=0;entryY=0.5;entryDx=0;entryDy=0;shadow=1;edgeStyle=orthogonalEdgeStyle;" parent="1" source="n2QR_PZvcFtyS0Cn1Ecn-67" target="Fvn3LyL0s-04VDup8MQJ-19" edge="1">
          <mxGeometry relative="1" as="geometry">
            <mxPoint x="730" y="1110" as="sourcePoint" />
            <mxPoint x="570" y="1110" as="targetPoint" />
          </mxGeometry>
        </mxCell>
        <mxCell id="bdou0zgwuHRvf7gCf9o--81" value="" style="endArrow=none;html=1;rounded=0;elbow=vertical;entryX=1.005;entryY=0;entryDx=0;entryDy=0;entryPerimeter=0;shadow=1;" parent="1" edge="1">
          <mxGeometry relative="1" as="geometry">
            <mxPoint y="200" as="sourcePoint" />
            <mxPoint x="181" y="200" as="targetPoint" />
          </mxGeometry>
        </mxCell>
      </root>
    </mxGraphModel>
  </diagram>
</mxfile>
